<svg width="41" height="47" viewBox="0 0 41 47" fill="none" xmlns="http://www.w3.org/2000/svg">
<path d="M12.1429 6H6.57143C5.09379 6 3.67668 6.52678 2.63183 7.46447C1.58699 8.40215 1 9.67392 1 11V41C1 42.3261 1.58699 43.5979 2.63183 44.5355C3.67668 45.4732 5.09379 46 6.57143 46H34.4286C35.9062 46 37.3233 45.4732 38.3682 44.5355C39.413 43.5979 40 42.3261 40 41V11C40 9.67392 39.413 8.40215 38.3682 7.46447C37.3233 6.52678 35.9062 6 34.4286 6H28.8571M12.1429 6C12.1429 7.32608 12.7298 8.59785 13.7747 9.53553C14.8195 10.4732 16.2367 11 17.7143 11H23.2857C24.7633 11 26.1805 10.4732 27.2253 9.53553C28.2702 8.59785 28.8571 7.32608 28.8571 6M12.1429 6C12.1429 4.67392 12.7298 3.40215 13.7747 2.46447C14.8195 1.52678 16.2367 1 17.7143 1H23.2857C24.7633 1 26.1805 1.52678 27.2253 2.46447C28.2702 3.40215 28.8571 4.67392 28.8571 6M12.1429 28.5L17.7143 33.5L28.8571 23.5" stroke="black" stroke-width="2" stroke-linecap="round" stroke-linejoin="round"/>
</svg>
