<svg width="49" height="56" viewBox="0 0 49 56" fill="none" xmlns="http://www.w3.org/2000/svg">
<path d="M14.4286 7H7.71429C5.93355 7 4.22574 7.63214 2.96657 8.75736C1.7074 9.88258 1 11.4087 1 13V49C1 50.5913 1.7074 52.1174 2.96657 53.2426C4.22574 54.3679 5.93355 55 7.71429 55H41.2857C43.0665 55 44.7743 54.3679 46.0334 53.2426C47.2926 52.1174 48 50.5913 48 49V13C48 11.4087 47.2926 9.88258 46.0334 8.75736C44.7743 7.63214 43.0665 7 41.2857 7H34.5714M14.4286 7C14.4286 8.5913 15.136 10.1174 16.3951 11.2426C17.6543 12.3679 19.3621 13 21.1429 13H27.8571C29.6379 13 31.3457 12.3679 32.6049 11.2426C33.864 10.1174 34.5714 8.5913 34.5714 7M14.4286 7C14.4286 5.4087 15.136 3.88258 16.3951 2.75736C17.6543 1.63214 19.3621 1 21.1429 1H27.8571C29.6379 1 31.3457 1.63214 32.6049 2.75736C33.864 3.88258 34.5714 5.4087 34.5714 7M14.4286 34L21.1429 40L34.5714 28" stroke="#4E74F9" stroke-width="2" stroke-linecap="round" stroke-linejoin="round"/>
</svg>
