<svg width="40" height="47" viewBox="0 0 40 47" fill="none" xmlns="http://www.w3.org/2000/svg">
<path d="M11.8333 6H6.41667C4.98008 6 3.60233 6.52678 2.5865 7.46447C1.57068 8.40215 1 9.67392 1 11V41C1 42.3261 1.57068 43.5979 2.5865 44.5355C3.60233 45.4732 4.98008 46 6.41667 46H33.5C34.9366 46 36.3143 45.4732 37.3302 44.5355C38.346 43.5979 38.9167 42.3261 38.9167 41V11C38.9167 9.67392 38.346 8.40215 37.3302 7.46447C36.3143 6.52678 34.9366 6 33.5 6H28.0833M11.8333 6C11.8333 7.32608 12.404 8.59785 13.4198 9.53553C14.4357 10.4732 15.8134 11 17.25 11H22.6667C24.1033 11 25.481 10.4732 26.4968 9.53553C27.5127 8.59785 28.0833 7.32608 28.0833 6M11.8333 6C11.8333 4.67392 12.404 3.40215 13.4198 2.46447C14.4357 1.52678 15.8134 1 17.25 1H22.6667C24.1033 1 25.481 1.52678 26.4968 2.46447C27.5127 3.40215 28.0833 4.67392 28.0833 6M19.9583 23.5H28.0833M19.9583 33.5H28.0833M11.8333 23.5H11.8604M11.8333 33.5H11.8604" stroke="black" stroke-width="2" stroke-linecap="round" stroke-linejoin="round"/>
</svg>
