<svg width="51" height="49" viewBox="0 0 51 49" fill="none" xmlns="http://www.w3.org/2000/svg">
<path d="M20.9635 4.97238C22.1173 0.509208 28.8827 0.509208 30.0365 4.97238C30.2096 5.64287 30.5489 6.26552 31.0269 6.78967C31.5049 7.31381 32.108 7.72463 32.7872 7.98869C33.4663 8.25275 34.2023 8.36258 34.9353 8.30925C35.6682 8.25592 36.3773 8.04094 37.005 7.68179C41.184 5.29262 45.9696 9.78121 43.4237 13.7055C43.0416 14.2943 42.8129 14.9594 42.7562 15.6468C42.6995 16.3342 42.8164 17.0244 43.0975 17.6613C43.3785 18.2983 43.8158 18.8641 44.3736 19.3126C44.9315 19.7611 45.5943 20.0798 46.3081 20.2427C51.064 21.3255 51.064 27.6745 46.3081 28.7573C45.5937 28.9198 44.9302 29.2382 44.3717 29.6868C43.8132 30.1354 43.3754 30.7014 43.094 31.3387C42.8126 31.9761 42.6956 32.6668 42.7524 33.3546C42.8093 34.0424 43.0383 34.708 43.421 35.297C45.9669 39.2188 41.184 43.7099 37.0023 41.3208C36.3749 40.9621 35.6662 40.7475 34.9337 40.6943C34.2013 40.6411 33.4658 40.7508 32.7871 41.0146C32.1084 41.2783 31.5055 41.6886 31.0276 42.2122C30.5496 42.7357 30.21 43.3577 30.0365 44.0276C28.8827 48.4908 22.1173 48.4908 20.9635 44.0276C20.7904 43.3571 20.4511 42.7345 19.9731 42.2103C19.4951 41.6862 18.892 41.2754 18.2128 41.0113C17.5337 40.7473 16.7977 40.6374 16.0647 40.6907C15.3318 40.7441 14.6227 40.9591 13.995 41.3182C9.81604 43.7074 5.03042 39.2188 7.57625 35.2945C7.9584 34.7057 8.18712 34.0406 8.24381 33.3532C8.3005 32.6658 8.18358 31.9756 7.90253 31.3387C7.62148 30.7017 7.18425 30.1359 6.62636 29.6874C6.06848 29.2389 5.40569 28.9202 4.69187 28.7573C-0.0639583 27.6745 -0.0639583 21.3255 4.69187 20.2427C5.40633 20.0803 6.06982 19.7618 6.62833 19.3132C7.18685 18.8646 7.62461 18.2986 7.90598 17.6613C8.18735 17.0239 8.30439 16.3332 8.24756 15.6454C8.19074 14.9576 7.96165 14.292 7.57896 13.703C5.03312 9.78121 9.81604 5.29008 13.9977 7.67925C16.6952 9.22458 20.216 7.85717 20.9635 4.97238Z" stroke="black" stroke-width="2" stroke-linecap="round" stroke-linejoin="round"/>
<path d="M34.625 24.5C34.625 26.5223 33.769 28.4617 32.2452 29.8917C30.7215 31.3217 28.6549 32.125 26.5 32.125C24.3451 32.125 22.2785 31.3217 20.7548 29.8917C19.231 28.4617 18.375 26.5223 18.375 24.5C18.375 22.4777 19.231 20.5383 20.7548 19.1083C22.2785 17.6783 24.3451 16.875 26.5 16.875C28.6549 16.875 30.7215 17.6783 32.2452 19.1083C33.769 20.5383 34.625 22.4777 34.625 24.5Z" stroke="black" stroke-width="2" stroke-linecap="round" stroke-linejoin="round"/>
</svg>
