<svg width="635" height="456" viewBox="0 0 635 456" fill="none" xmlns="http://www.w3.org/2000/svg">
<path d="M224 0H492C500.837 0 508 7.16344 508 16V262C508 270.837 500.837 278 492 278H224C215.163 278 208 270.837 208 262V16C208 7.16344 215.163 0 224 0Z" fill="#F2E9FF"/>
<g style="mix-blend-mode:overlay">
<path d="M209.44 180.52H507.44V262.52C507.44 271.357 500.276 278.52 491.44 278.52H225.44C216.603 278.52 209.44 271.357 209.44 262.52V180.52Z" fill="black"/>
</g>
<path fill-rule="evenodd" clip-rule="evenodd" d="M250.7 239.66C248.491 239.66 246.7 237.869 246.7 235.66C246.7 233.451 248.491 231.66 250.7 231.66H286.18C288.389 231.66 290.18 233.451 290.18 235.66C290.18 237.869 288.389 239.66 286.18 239.66H250.7ZM340.7 239.66C338.491 239.66 336.7 237.869 336.7 235.66C336.7 233.451 338.491 231.66 340.7 231.66H376.18C378.389 231.66 380.18 233.451 380.18 235.66C380.18 237.869 378.389 239.66 376.18 239.66H340.7ZM426.7 235.66C426.7 237.869 428.491 239.66 430.7 239.66H466.18C468.389 239.66 470.18 237.869 470.18 235.66C470.18 233.451 468.389 231.66 466.18 231.66H430.7C428.491 231.66 426.7 233.451 426.7 235.66Z" fill="white"/>
<g style="mix-blend-mode:overlay">
<path fill-rule="evenodd" clip-rule="evenodd" d="M250.7 219.66C248.491 219.66 246.7 217.869 246.7 215.66C246.7 213.451 248.491 211.66 250.7 211.66H272.18C274.389 211.66 276.18 213.451 276.18 215.66C276.18 217.869 274.389 219.66 272.18 219.66H250.7ZM340.7 219.66C338.491 219.66 336.7 217.869 336.7 215.66C336.7 213.451 338.491 211.66 340.7 211.66H362.18C364.389 211.66 366.18 213.451 366.18 215.66C366.18 217.869 364.389 219.66 362.18 219.66H340.7ZM426.7 215.66C426.7 217.869 428.491 219.66 430.7 219.66H452.18C454.389 219.66 456.18 217.869 456.18 215.66C456.18 213.451 454.389 211.66 452.18 211.66H430.7C428.491 211.66 426.7 213.451 426.7 215.66Z" fill="#231F20"/>
</g>
<g style="mix-blend-mode:overlay">
<path d="M268.54 101.12L246.3 122.2L244.92 120.74L267.3 99.56L285.66 87.1L285.96 86.96L307.66 81.3L327.66 99.48L346.38 108L365.88 89.74L366.06 89.6L386.6 77.7L407.3 67.02L427.2 89.6L446.98 100L465.86 81.16L467.28 82.58L447.28 102.44L426.02 91.28L425.74 91.06L406.74 69.52L387.48 79.52L367.16 91.2L346.78 110.3L326.78 101.24L326.52 101.06L307.14 83.5L286.64 88.86L268.54 101.12Z" fill="#231F20"/>
</g>
<path fill-rule="evenodd" clip-rule="evenodd" d="M403.78 49.24C403.78 47.5831 405.123 46.24 406.78 46.24C408.437 46.24 409.78 47.5831 409.78 49.24V91.1C409.78 92.7568 408.437 94.1 406.78 94.1C405.123 94.1 403.78 92.7568 403.78 91.1V49.24ZM286.78 66.24C285.123 66.24 283.78 67.5831 283.78 69.24V111.1C283.78 112.757 285.123 114.1 286.78 114.1C288.437 114.1 289.78 112.757 289.78 111.1V69.24C289.78 67.5831 288.437 66.24 286.78 66.24ZM246.78 106.24C245.123 106.24 243.78 107.583 243.78 109.24V131.1C243.78 132.757 245.123 134.1 246.78 134.1C248.437 134.1 249.78 132.757 249.78 131.1V109.24C249.78 107.583 248.437 106.24 246.78 106.24ZM323.78 89.24C323.78 87.5831 325.123 86.24 326.78 86.24C328.437 86.24 329.78 87.5831 329.78 89.24V111.1C329.78 112.757 328.437 114.1 326.78 114.1C325.123 114.1 323.78 112.757 323.78 111.1V89.24ZM366.78 76.24C365.123 76.24 363.78 77.5831 363.78 79.24V101.1C363.78 102.757 365.123 104.1 366.78 104.1C368.437 104.1 369.78 102.757 369.78 101.1V79.24C369.78 77.5831 368.437 76.24 366.78 76.24ZM446.78 76.24C445.123 76.24 443.78 77.5831 443.78 79.24V121.1C443.78 122.757 445.123 124.1 446.78 124.1C448.437 124.1 449.78 122.757 449.78 121.1V79.24C449.78 77.5831 448.437 76.24 446.78 76.24Z" fill="#3268AE"/>
<path fill-rule="evenodd" clip-rule="evenodd" d="M305.28 66.6419C304.352 67.1778 303.78 68.1682 303.78 69.24V91.1C303.78 92.7568 305.123 94.1 306.78 94.1C308.437 94.1 309.78 92.7568 309.78 91.1V69.24C309.78 68.1682 309.208 67.1778 308.28 66.6419C307.352 66.106 306.208 66.106 305.28 66.6419ZM266.78 86.24C265.123 86.24 263.78 87.5831 263.78 89.24V111.1C263.78 112.757 265.123 114.1 266.78 114.1C268.437 114.1 269.78 112.757 269.78 111.1V89.24C269.78 87.5831 268.437 86.24 266.78 86.24ZM343.78 95.24C343.78 93.5831 345.123 92.24 346.78 92.24C348.437 92.24 349.78 93.5831 349.78 95.24V117.1C349.78 118.757 348.437 120.1 346.78 120.1C345.123 120.1 343.78 118.757 343.78 117.1V95.24ZM386.78 66.24C385.123 66.24 383.78 67.5831 383.78 69.24V91.1C383.78 92.7568 385.123 94.1 386.78 94.1C388.437 94.1 389.78 92.7568 389.78 91.1V69.24C389.78 67.5831 388.437 66.24 386.78 66.24ZM423.78 69.24C423.78 67.5831 425.123 66.24 426.78 66.24C428.437 66.24 429.78 67.5831 429.78 69.24V105.1C429.78 106.757 428.437 108.1 426.78 108.1C425.123 108.1 423.78 106.757 423.78 105.1V69.24ZM466.78 66.24C465.123 66.24 463.78 67.5831 463.78 69.24V91.1C463.78 92.7568 465.123 94.1 466.78 94.1C468.437 94.1 469.78 92.7568 469.78 91.1V69.24C469.78 67.5831 468.437 66.24 466.78 66.24Z" fill="#EC7EF2"/>
<rect x="531" width="103.29" height="123.62" rx="6" fill="#F2E9FF"/>
<g style="mix-blend-mode:overlay" opacity="0.6">
<g style="mix-blend-mode:overlay">
<path fill-rule="evenodd" clip-rule="evenodd" d="M542.22 108.69H625V37.28H542.22V108.69ZM610.45 107.82H597.67V96.93H610.45V107.82ZM584.02 107.82H596.8V96.93H584.02V107.82ZM583.15 96.06V85.18H570.38V96.06H583.15ZM569.51 96.06V85.18H556.73V96.06H569.51ZM555.86 96.06H543.13V85.18H555.86V96.06ZM556.73 84.31H569.51V73.42H556.73V84.31ZM555.86 73.42V84.31H543.13V73.42H555.86ZM556.73 72.55H569.51V61.66H556.73V72.55ZM555.86 61.66V72.55H543.13V61.66H555.86ZM556.73 60.79H569.51V49.91H556.73V60.79ZM555.86 49.91V60.79H543.13V49.91H555.86ZM556.73 49.04H569.51V38.15H556.73V49.04ZM555.86 38.15V49.04H543.13V38.15H555.86ZM555.86 96.93V107.82H543.13V96.93H555.86ZM556.73 107.82V96.93H569.51V107.82H556.73ZM583.15 84.31H570.38V73.42H583.15V84.31ZM583.15 72.55H570.38V61.66H583.15V72.55ZM583.15 60.79H570.38V49.91H583.15V60.79ZM583.15 49.04H570.38V38.15H583.15V49.04ZM583.15 107.82H570.38V96.93H583.15V107.82ZM584.02 84.31H596.8V73.42H584.02V84.31ZM584.02 85.18H596.8V96.06H584.02V85.18ZM584.02 60.79H596.8V49.91H584.02V60.79ZM584.02 61.66H596.8V72.55H584.02V61.66ZM584.02 49.04H596.8V38.15H584.02V49.04ZM610.45 96.06H597.67V85.18H610.45V96.06ZM610.45 84.31H597.67V73.42H610.45V84.31ZM610.45 72.55H597.67V61.66H610.45V72.55ZM610.45 60.79H597.67V49.91H610.45V60.79ZM610.45 49.04H597.67V38.15H610.45V49.04ZM611.32 107.82H624.13V96.93H611.32V107.82ZM611.32 96.06H624.13V85.18H611.32V96.06ZM611.32 84.31H624.13V73.42H611.32V84.31ZM611.32 72.55H624.13V61.66H611.32V72.55ZM611.32 60.79H624.13V49.91H611.32V60.79ZM611.32 49.04H624.13V38.15H611.32V49.04Z" fill="black"/>
</g>
</g>
<path fill-rule="evenodd" clip-rule="evenodd" d="M616.03 61.96H607.21V107.94H616.03V61.96ZM551.78 92.74H560.6V107.94H551.78V92.74ZM579.5 95.04H588.32V107.94H579.5V95.04Z" fill="#3871D6"/>
<path fill-rule="evenodd" clip-rule="evenodd" d="M602.17 73.06H593.35V107.93H602.17V73.06ZM574.46 81.06H565.64V107.94H574.46V81.06Z" fill="#EC7EF2"/>
<g style="mix-blend-mode:overlay">
<path fill-rule="evenodd" clip-rule="evenodd" d="M545 10C543.895 10 543 10.8954 543 12C543 13.1046 543.895 14 545 14H578C579.105 14 580 13.1046 580 12C580 10.8954 579.105 10 578 10H545ZM544.5 19C543.672 19 543 19.6716 543 20.5C543 21.3284 543.672 22 544.5 22H567.5C568.328 22 569 21.3284 569 20.5C569 19.6716 568.328 19 567.5 19H544.5Z" fill="black"/>
</g>
<path d="M74.8174 87.7811C74.8174 79.1697 85.5638 81.9147 87.3927 82.4542C89.2216 82.9937 93.4891 70.5854 93.4891 70.5854C93.4891 70.5854 115.436 68.967 119.704 72.7434C119.704 72.7434 120.923 88.9281 120.313 99.1785C119.704 109.429 115.982 113.735 111.714 113.735C110.365 113.668 109.038 113.394 107.795 112.925V131.795L81.9805 119.954L85.1597 97.6636C85.029 97.5957 84.9541 97.56 84.9541 97.56C84.9541 97.56 74.8175 95.914 74.8174 87.7811Z" fill="#FFB7B6"/>
<path d="M120.401 86.7737C120.401 86.7737 119.21 77.9147 119.059 75.4621C118.841 71.9338 115.128 71.1934 112.944 73.668C109.804 77.3427 104.475 78.9857 99.4349 77.833C95.0127 76.9215 93.1503 75.8751 92.7448 79.8247C92.3394 83.7744 90.8189 90.3334 89.3998 88.5788C87.9807 86.8243 86.3926 82.9671 83.5812 82.5186C79.2849 81.8332 76.6278 86.3724 77.6415 89.0799C78.6551 91.7874 80.0884 93.4759 85.3917 96.0363L83.7378 107.633C70.5969 92.2131 65.6466 71.0368 83.47 66.1331C90.1285 64.3011 97.0456 52.4289 109.93 55.1297C119.059 57.0434 119.059 63.2328 119.708 68.6148C131.973 69.0634 120.401 86.7737 120.401 86.7737Z" fill="#352316"/>
<ellipse cx="1.14035" cy="1.65948" rx="1.14035" ry="1.65948" transform="matrix(-1 0 0 1 107.776 83.4548)" fill="#161B36"/>
<ellipse cx="1.14035" cy="1.65948" rx="1.14035" ry="1.65948" transform="matrix(-1 0 0 1 119.059 84.1443)" fill="#161B36"/>
<path d="M108.992 78.4763C108.587 78.0727 108.029 77.7587 106.357 77.8484C104.684 77.9381 102.15 79.3285 102.708 79.6873C103.265 80.0461 104.938 78.8351 106.255 79.2388C107.573 79.6425 108.33 79.9745 108.773 79.7547C109.33 79.478 109.187 78.6704 108.992 78.4763Z" fill="#161B36"/>
<path d="M116.24 78.0645C116.771 77.7984 117.413 77.6605 118.963 78.2233C120.514 78.7861 122.405 80.8261 121.746 81.0063C121.088 81.1866 119.947 79.5626 118.552 79.5682C117.158 79.5737 116.321 79.6717 115.982 79.3372C115.555 78.916 115.985 78.1925 116.24 78.0645Z" fill="#161B36"/>
<g style="mix-blend-mode:overlay" opacity="0.6">
<path d="M113.766 96.3078C114.354 96.3269 114.938 96.2071 115.456 95.9606C115.797 95.7924 116.033 95.4979 116.102 95.1585C116.228 94.4551 115.416 93.3667 114.421 92.1209C114.169 91.8235 113.937 91.5125 113.728 91.1897C113.526 90.8064 113.584 87.3132 113.757 84.1574L113.148 84.1313C113.088 85.2258 112.808 90.72 113.176 91.4178C113.398 91.7711 113.648 92.1101 113.924 92.4323C114.55 93.2168 115.597 94.5299 115.5 95.0736C115.459 95.2576 115.326 95.415 115.137 95.5009C114.262 95.8339 113.277 95.861 112.38 95.5768L112.193 96.0905C112.702 96.2337 113.232 96.307 113.766 96.3078Z" fill="#030F1C"/>
</g>
<path d="M114.504 101.441C114.556 101.281 114.534 101.111 114.442 100.966C114.351 100.821 114.198 100.715 114.018 100.67C113.121 100.441 111.468 100.008 110.208 99.6289C108.895 99.1682 107.619 98.6308 106.386 98.0201C106.172 97.9168 105.912 97.9188 105.699 98.0253C105.486 98.1318 105.35 98.3278 105.34 98.5439C105.254 100.204 105.48 103.447 108.431 104.108C112.019 104.912 113.898 103.194 114.504 101.441Z" fill="#161B36"/>
<path d="M112.944 103.511C112.944 103.511 109.857 99.6941 105.446 100.566C105.446 100.566 105.439 103.547 108.282 104.219C111.344 104.942 112.944 103.511 112.944 103.511Z" fill="#E55151"/>
<path d="M81.5445 85.9408C84.4674 85.0659 87.1816 90.6955 87.2959 90.9358C87.3612 91.0731 87.2883 91.2313 87.1331 91.289C86.9779 91.3468 86.7992 91.2823 86.7339 91.1449C86.2616 90.1731 85.6838 89.2442 85.0086 88.3713C84.3923 88.2763 83.758 88.3789 83.2195 88.6606C82.6855 89.0125 82.3446 89.5479 82.281 90.1345C82.2566 90.2645 82.1296 90.36 81.9806 90.3602C81.9639 90.3603 81.9471 90.359 81.9306 90.3565C81.8509 90.3449 81.7796 90.3057 81.7325 90.2476C81.6854 90.1894 81.6664 90.117 81.6797 90.0465C81.7858 88.7406 83.0461 87.7461 84.5243 87.802C83.6562 86.8507 82.6658 86.1734 81.7404 86.4518C81.6373 86.4828 81.5233 86.4627 81.4414 86.3991C81.3595 86.3355 81.3222 86.2381 81.3435 86.1436C81.3647 86.049 81.4414 85.9717 81.5445 85.9408H81.5445Z" fill="#0B122D"/>
<path d="M107.795 113.196C107.939 113.196 108.063 113.107 108.093 112.982C108.123 112.857 108.05 112.731 107.918 112.679C107.818 112.64 97.8013 108.674 93.5738 103.881C93.47 103.764 93.279 103.744 93.1466 103.835C93.0142 103.926 92.9904 104.095 93.0933 104.213C97.4156 109.113 107.255 113.009 107.671 113.172C107.71 113.188 107.752 113.196 107.795 113.196V113.196Z" fill="#0B122D"/>
<path d="M93.511 75.1477C93.5786 75.1478 93.6443 75.1278 93.6976 75.0911C98.2979 71.9297 96.586 65.8017 96.511 65.5425C96.4686 65.3988 96.303 65.3124 96.1404 65.3493C95.9778 65.3861 95.8795 65.5323 95.9204 65.6763C95.9376 65.7364 97.6058 71.7221 93.3238 74.6648C93.2208 74.7356 93.18 74.8564 93.2223 74.9655C93.2646 75.0746 93.3807 75.1478 93.511 75.1477V75.1477Z" fill="white"/>
<g style="mix-blend-mode:overlay" opacity="0.6">
<path d="M107.774 113.049C107.774 113.049 98.9894 109.433 96.1512 106.802C96.1512 106.802 96.8067 113.896 102.608 118.881C108.41 123.867 107.774 119.838 107.774 119.838L107.774 113.049Z" fill="#030F1C"/>
</g>
<path fill-rule="evenodd" clip-rule="evenodd" d="M123.779 438.187H137.607V422.652H123.103L123.779 438.187ZM68.9061 423.131L54.6101 422.691L54.0029 438.187H67.8314L68.9061 423.131Z" fill="#FFB7B6"/>
<path fill-rule="evenodd" clip-rule="evenodd" d="M41.7322 450.631L41.7682 450.632C41.4662 451.071 41.3043 451.574 41.2997 452.087V454.203H71.351V452.087C71.3503 451.833 71.3094 451.58 71.2294 451.336L68.7373 435.956C68.6502 435.419 66.8295 434.981 66.0937 435.108C65.7751 435.023 65.4496 434.959 65.1201 434.916C65.3847 434.547 65.5518 434.13 65.609 433.695C65.6625 432.986 65.2938 432.303 64.6362 431.893C64.296 431.631 63.8261 431.544 63.3955 431.664C62.4035 431.935 61.4511 433.262 60.6874 434.685C60.1309 434.682 59.5786 434.686 59.0481 434.693C58.6784 433.35 58.0696 432.008 57.0604 431.291C56.4081 430.817 55.5429 430.641 54.7218 430.813C53.6931 431.002 53.0876 431.412 52.9233 432.033C52.7195 432.802 53.2803 433.789 54.1174 434.767C53.6498 434.781 53.1854 434.854 53.0319 435.066L41.7322 450.631ZM55.3654 431.292C55.8455 431.291 56.3107 431.44 56.6788 431.712C57.538 432.322 58.078 433.494 58.4203 434.703C57.0508 434.729 55.9065 434.775 55.3777 434.796L55.3775 434.796C55.2028 434.803 55.0953 434.807 55.0691 434.807C55.0346 434.803 54.992 434.799 54.9495 434.795L54.922 434.792C53.9906 433.798 53.3408 432.821 53.5169 432.156C53.6222 431.758 54.0693 431.484 54.8457 431.341C55.0166 431.309 55.1907 431.293 55.3654 431.292ZM65.0012 433.651C65.0361 433.12 64.7521 432.612 64.254 432.314C64.0725 432.163 63.8127 432.112 63.5759 432.18C62.843 432.38 62.0584 433.444 61.3695 434.691C62.4763 434.707 63.5616 434.751 64.47 434.84C64.7564 434.489 64.9391 434.08 65.0012 433.651ZM137.607 435.029C131.144 440.284 123.681 435.029 123.681 435.029C123.681 435.029 119.859 436.72 119.724 439.281C119.589 441.843 119.715 450.759 119.715 450.759V452.424C119.715 452.896 119.927 453.348 120.304 453.682C120.681 454.016 121.193 454.203 121.726 454.203H172.856C173.389 454.203 173.9 454.016 174.278 453.682C174.655 453.348 174.866 452.896 174.866 452.424V450.25H174.757C173.992 448.016 169.22 445.492 164.325 444.445C164.231 444.425 164.13 444.403 164.03 444.382C163.305 444.224 161.298 443.772 159.018 443.144C158.286 442.938 157.499 442.703 156.671 442.442C156.715 442.405 156.743 442.382 156.751 442.375L156.754 442.373C156.877 442.272 156.884 442.101 156.77 441.992C156.655 441.883 156.462 441.877 156.339 441.978C156.322 441.992 156.21 442.084 156.03 442.239C155.652 442.117 155.264 441.989 154.866 441.854C153.914 441.515 152.886 441.121 151.849 440.708L151.892 440.672C152.015 440.571 152.022 440.4 151.908 440.291C151.794 440.182 151.601 440.175 151.478 440.277C151.463 440.288 151.381 440.357 151.25 440.468C149.939 439.939 148.638 439.391 147.475 438.891C148.487 438.84 150.532 438.628 151.478 437.748C151.839 437.424 152.025 436.979 151.989 436.525C152.02 436.164 151.792 435.824 151.419 435.675C150.502 435.361 148.716 436.577 147.663 437.392C147.863 436.494 148.025 435.155 147.439 434.506C147.183 434.227 146.785 434.081 146.381 434.119C145.996 434.126 145.642 434.307 145.444 434.598C144.853 435.473 145.589 437.354 145.998 438.249C145.362 437.97 144.802 437.721 144.363 437.525C144.025 437.371 143.694 437.222 143.367 437.076L143.288 437.04L143.287 437.041C141.486 436.183 139.58 435.508 137.607 435.029ZM146.419 434.657C146.624 434.632 146.829 434.702 146.962 434.843C147.538 435.48 147.071 437.419 146.842 438.111L146.731 438.399C146.193 437.329 145.541 435.505 145.967 434.875C146.061 434.735 146.235 434.652 146.419 434.657ZM151.381 436.557C151.366 436.342 151.305 436.215 151.198 436.178C151.152 436.163 151.104 436.156 151.055 436.157C150.37 436.157 148.685 437.241 147.378 438.354C148.287 438.312 150.224 438.132 151.036 437.376C151.28 437.16 151.406 436.861 151.381 436.557H151.381Z" fill="#4C3939"/>
<g style="mix-blend-mode:overlay" opacity="0.4">
<path d="M123.643 448.965C122.449 448.965 121.481 448.108 121.481 447.051C121.481 445.994 122.449 445.137 123.643 445.137C124.838 445.137 125.806 445.994 125.806 447.051C125.806 448.108 124.838 448.965 123.643 448.965V448.965Z" fill="#4C3939"/>
<path d="M123.643 448.965C122.449 448.965 121.481 448.108 121.481 447.051C121.481 445.994 122.449 445.137 123.643 445.137C124.838 445.137 125.806 445.994 125.806 447.051C125.806 448.108 124.838 448.965 123.643 448.965V448.965Z" stroke="#4C3939"/>
</g>
<g style="mix-blend-mode:overlay" opacity="0.4">
<path d="M124.386 443.931H119.662V443.392H124.386C126.569 443.394 128.338 444.96 128.341 446.891V450.25H174.866V452.424C174.866 452.896 174.655 453.348 174.278 453.682C173.9 454.016 173.389 454.203 172.856 454.203H121.726C121.193 454.203 120.681 454.016 120.304 453.682C119.927 453.348 119.715 452.896 119.715 452.424V450.25H127.731V446.891C127.729 445.257 126.233 443.933 124.386 443.931V443.931Z" fill="#4C3939"/>
<path d="M124.386 443.931H119.662V443.392H124.386C126.569 443.394 128.338 444.96 128.341 446.891V450.25H174.866V452.424C174.866 452.896 174.655 453.348 174.278 453.682C173.9 454.016 173.389 454.203 172.856 454.203H121.726C121.193 454.203 120.681 454.016 120.304 453.682C119.927 453.348 119.715 452.896 119.715 452.424V450.25H127.731V446.891C127.729 445.257 126.233 443.933 124.386 443.931V443.931Z" stroke="#4C3939"/>
</g>
<g style="mix-blend-mode:overlay" opacity="0.4">
<path d="M47.5893 448.24H65.0614C68.5352 448.24 71.3511 449.962 71.3511 452.087V454.203H41.2997V452.087C41.2997 449.962 44.1155 448.24 47.5893 448.24Z" fill="#4C3939"/>
<path d="M47.5893 448.24H65.0614C68.5352 448.24 71.3511 449.962 71.3511 452.087V454.203H41.2997V452.087C41.2997 449.962 44.1155 448.24 47.5893 448.24Z" stroke="#4C3939"/>
</g>
<g style="mix-blend-mode:overlay" opacity="0.4">
<path d="M145.998 438.249C146.105 438.483 146.191 438.653 146.224 438.717C146.237 438.742 146.254 438.765 146.275 438.785C145.321 439.616 144.434 440.506 143.622 441.447C143.522 441.567 143.55 441.735 143.684 441.824C143.818 441.913 144.009 441.889 144.11 441.771C144.993 440.752 145.963 439.795 147.011 438.906C147.113 438.905 147.276 438.901 147.475 438.891C148.637 439.39 149.94 439.939 151.25 440.468C150.229 441.343 149.282 442.285 148.418 443.284C148.317 443.404 148.344 443.573 148.479 443.662C148.614 443.752 148.805 443.727 148.906 443.608C149.802 442.576 150.785 441.606 151.849 440.708C152.903 441.128 153.949 441.528 154.915 441.872C155.276 442 155.647 442.124 156.022 442.247C155.034 443.1 154.118 444.015 153.28 444.986C153.18 445.105 153.207 445.273 153.342 445.362C153.476 445.452 153.667 445.428 153.768 445.309C154.649 444.293 155.616 443.338 156.66 442.452C160.39 443.621 164.324 444.445 164.324 444.445C164.324 444.445 163.682 446.722 161.452 447.26C159.222 447.798 146.552 443.941 143.203 442.506C139.854 441.071 143.288 437.04 143.288 437.04C143.288 437.04 144.381 437.54 145.998 438.249Z" fill="#4C3939"/>
<path d="M145.998 438.249C146.105 438.483 146.191 438.653 146.224 438.717C146.237 438.742 146.254 438.765 146.275 438.785C145.321 439.616 144.434 440.506 143.622 441.447C143.522 441.567 143.55 441.735 143.684 441.824C143.818 441.913 144.009 441.889 144.11 441.771C144.993 440.752 145.963 439.795 147.011 438.906C147.113 438.905 147.276 438.901 147.475 438.891C148.637 439.39 149.94 439.939 151.25 440.468C150.229 441.343 149.282 442.285 148.418 443.284C148.317 443.404 148.344 443.573 148.479 443.662C148.614 443.752 148.805 443.727 148.906 443.608C149.802 442.576 150.785 441.606 151.849 440.708C152.903 441.128 153.949 441.528 154.915 441.872C155.276 442 155.647 442.124 156.022 442.247C155.034 443.1 154.118 444.015 153.28 444.986C153.18 445.105 153.207 445.273 153.342 445.362C153.476 445.452 153.667 445.428 153.768 445.309C154.649 444.293 155.616 443.338 156.66 442.452C160.39 443.621 164.324 444.445 164.324 444.445C164.324 444.445 163.682 446.722 161.452 447.26C159.222 447.798 146.552 443.941 143.203 442.506C139.854 441.071 143.288 437.04 143.288 437.04C143.288 437.04 144.381 437.54 145.998 438.249Z" stroke="#4C3939"/>
</g>
<g style="mix-blend-mode:overlay" opacity="0.4">
<path d="M59.5173 437.22C59.4275 436.369 59.2706 435.524 59.048 434.692C59.5785 434.685 60.1308 434.682 60.6875 434.685C60.2123 435.57 59.8097 436.492 59.5173 437.22Z" fill="#4C3939"/>
<path d="M59.5173 437.22C59.4275 436.369 59.2706 435.524 59.048 434.692C59.5785 434.685 60.1308 434.682 60.6875 434.685C60.2123 435.57 59.8097 436.492 59.5173 437.22Z" stroke="#4C3939"/>
</g>
<g style="mix-blend-mode:overlay" opacity="0.4">
<path fill-rule="evenodd" clip-rule="evenodd" d="M54.6618 435.368C55.6876 436.395 56.804 437.349 58.0003 438.22C56.7625 438.304 55.5495 438.572 54.4128 439.013C54.3147 439.055 54.2494 439.14 54.2415 439.237C54.2335 439.333 54.2841 439.425 54.3742 439.479C54.4643 439.534 54.5802 439.541 54.6783 439.499C55.9883 439.018 57.3867 438.752 58.8047 438.716C58.8839 438.645 59.0044 438.625 59.1074 438.665C59.2104 438.705 59.2745 438.798 59.2684 438.897C59.4173 438.916 59.5593 438.836 59.6024 438.708C60.0808 437.333 60.6715 435.99 61.3697 434.691C62.4766 434.707 63.562 434.75 64.4708 434.839C63.175 436.567 59.9756 438.191 59.9358 438.211C59.8209 438.269 59.761 438.386 59.7876 438.5C59.8142 438.615 59.9212 438.701 60.0525 438.714C61.7168 438.885 63.3665 439.153 64.9909 439.516C65.0177 439.523 65.0453 439.526 65.0731 439.526C65.2254 439.526 65.3543 439.426 65.375 439.293C65.3957 439.159 65.3019 439.033 65.1553 438.997C63.7833 438.68 62.3905 438.439 60.9848 438.276C62.1066 437.638 64.1766 436.331 65.1206 434.915C66.1172 435.055 66.7873 435.27 66.8273 435.596C67.0334 437.272 66.2699 444.704 65.2562 445.227C64.2426 445.75 49.9743 445.63 49.8857 445.325C49.6834 444.629 53.3914 437.44 54.6618 435.368ZM65.0379 440.842C64.8612 440.795 60.6288 439.731 53.3453 440.834C53.1797 440.86 53.0685 440.999 53.0967 441.145C53.125 441.292 53.2819 441.391 53.4477 441.366C60.566 440.286 64.8097 441.345 64.8663 441.359L64.8665 441.359C64.9709 441.386 65.0838 441.362 65.1625 441.295C65.2413 441.229 65.274 441.13 65.2483 441.037C65.2226 440.943 65.1424 440.869 65.038 440.842L65.0379 440.842ZM65.5178 443.474C61.051 443.026 56.5415 443.027 52.0748 443.475L52.0748 443.475C51.9083 443.489 51.7586 443.384 51.7366 443.238C51.7175 443.09 51.8373 442.956 52.0045 442.938C56.5227 442.485 61.0843 442.486 65.6023 442.939C65.7607 442.959 65.8749 443.084 65.8639 443.225C65.853 443.366 65.7206 443.476 65.5607 443.476C65.5463 443.476 65.532 443.475 65.5178 443.474Z" fill="#4C3939"/>
<path d="M58.0003 438.22L58.2946 437.816L59.4075 438.626L58.0341 438.719L58.0003 438.22ZM54.6618 435.368L54.2355 435.106L54.5672 434.565L55.0156 435.014L54.6618 435.368ZM54.4128 439.013L54.216 438.554L54.2238 438.55L54.2317 438.547L54.4128 439.013ZM54.2415 439.237L53.7432 439.195L53.7432 439.195L54.2415 439.237ZM54.3742 439.479L54.1166 439.908L54.1166 439.908L54.3742 439.479ZM54.6783 439.499L54.4815 439.039L54.4935 439.034L54.5058 439.03L54.6783 439.499ZM58.8047 438.716L59.138 439.088L59.0011 439.211L58.8175 439.216L58.8047 438.716ZM59.1074 438.665L58.9249 439.131L58.9249 439.131L59.1074 438.665ZM59.2684 438.897L59.2058 439.394L58.7408 439.335L58.7694 438.867L59.2684 438.897ZM59.6024 438.708L59.1287 438.548L59.1302 438.544L59.6024 438.708ZM61.3697 434.691L60.9293 434.454L61.0731 434.187L61.3768 434.191L61.3697 434.691ZM64.4708 434.839L64.5194 434.341L65.404 434.427L64.8708 435.139L64.4708 434.839ZM59.9358 438.211L60.1619 438.657L60.16 438.658L59.9358 438.211ZM59.7876 438.5L59.3006 438.613L59.3006 438.613L59.7876 438.5ZM60.0525 438.714L60.1014 438.217L60.1036 438.217L60.0525 438.714ZM64.9909 439.516L65.1 439.028L65.1122 439.031L64.9909 439.516ZM65.0731 439.526L65.0724 439.026L65.0729 439.026L65.0731 439.526ZM65.375 439.293L64.8809 439.216L64.8809 439.216L65.375 439.293ZM65.1553 438.997L65.2677 438.509L65.2756 438.511L65.1553 438.997ZM60.9848 438.276L60.9271 438.772L59.4094 438.596L60.7378 437.841L60.9848 438.276ZM65.1206 434.915L64.7046 434.638L64.8788 434.377L65.1898 434.42L65.1206 434.915ZM66.8273 435.596L66.331 435.657L66.331 435.657L66.8273 435.596ZM65.2562 445.227L65.0268 444.783L65.0268 444.783L65.2562 445.227ZM49.8857 445.325L50.3659 445.186L50.3659 445.186L49.8857 445.325ZM53.3453 440.834L53.2694 440.34L53.2704 440.34L53.3453 440.834ZM65.0379 440.842L65.1761 441.322L65.0441 441.36L64.9111 441.325L65.0379 440.842ZM53.4477 441.366L53.5227 441.861L53.5209 441.861L53.4477 441.366ZM64.8663 441.359L64.7454 441.844L64.7452 441.844L64.8663 441.359ZM64.8665 441.359L64.9874 440.874L64.9921 440.875L64.8665 441.359ZM65.1625 441.295L65.4851 441.677L65.4851 441.677L65.1625 441.295ZM65.2483 441.037L64.7661 441.169L64.7661 441.169L65.2483 441.037ZM65.038 440.842L64.8998 440.361L65.0312 440.323L65.1636 440.358L65.038 440.842ZM52.0748 443.475L51.8943 443.941L52.0249 442.977L52.0748 443.475ZM65.5178 443.474L65.5676 442.976L65.5759 442.977L65.5178 443.474ZM52.0748 443.475L52.2553 443.008L52.1186 443.973L52.0748 443.475ZM51.7366 443.238L51.242 443.312L51.2408 443.302L51.7366 443.238ZM52.0045 442.938L51.9528 442.441L51.9547 442.441L52.0045 442.938ZM65.6023 442.939L65.6523 442.442L65.6642 442.443L65.6023 442.939ZM65.8639 443.225L65.3654 443.186L65.3654 443.186L65.8639 443.225ZM65.5607 443.476L65.5619 443.976L65.5575 443.976L65.5607 443.476ZM57.706 438.624C56.4889 437.738 55.3526 436.767 54.3079 435.721L55.0156 435.014C56.0226 436.023 57.119 436.96 58.2946 437.816L57.706 438.624ZM54.2317 438.547C55.4165 438.087 56.6792 437.808 57.9666 437.721L58.0341 438.719C56.8458 438.799 55.6826 439.057 54.5938 439.479L54.2317 438.547ZM53.7432 439.195C53.7683 438.892 53.9698 438.659 54.216 438.554L54.6095 439.473C54.6596 439.452 54.7306 439.389 54.7398 439.278L53.7432 439.195ZM54.1166 439.908C53.8818 439.767 53.7178 439.502 53.7432 439.195L54.7398 439.278C54.7492 439.164 54.6864 439.084 54.6318 439.051L54.1166 439.908ZM54.8751 439.959C54.6319 440.063 54.3468 440.046 54.1166 439.908L54.6318 439.051C54.6048 439.035 54.5784 439.028 54.5556 439.026C54.5327 439.025 54.5075 439.028 54.4815 439.039L54.8751 439.959ZM58.8175 439.216C57.4532 439.251 56.1088 439.506 54.8508 439.968L54.5058 439.03C55.8679 438.529 57.3203 438.254 58.7918 438.216L58.8175 439.216ZM58.9249 439.131C58.9608 439.145 58.9968 439.147 59.0297 439.142C59.0624 439.136 59.1015 439.121 59.138 439.088L58.4713 438.343C58.6982 438.14 59.0202 438.094 59.2898 438.199L58.9249 439.131ZM58.7694 438.867C58.7604 439.014 58.8557 439.103 58.9249 439.131L59.2898 438.199C59.5651 438.307 59.7886 438.582 59.7675 438.928L58.7694 438.867ZM60.0761 438.868C59.945 439.256 59.5517 439.437 59.2058 439.394L59.331 438.401C59.2987 438.397 59.263 438.403 59.2287 438.423C59.1944 438.442 59.1512 438.482 59.1288 438.548L60.0761 438.868ZM61.8102 434.928C61.1243 436.204 60.5443 437.523 60.0747 438.873L59.1302 438.544C59.6174 437.144 60.2187 435.777 60.9293 434.454L61.8102 434.928ZM64.4221 435.336C63.5331 435.249 62.4634 435.206 61.3627 435.191L61.3768 434.191C62.4899 434.207 63.5908 434.25 64.5194 434.341L64.4221 435.336ZM59.7097 437.766C59.7218 437.759 60.5145 437.357 61.4609 436.746C62.421 436.125 63.4796 435.327 64.0707 434.539L64.8708 435.139C64.1661 436.078 62.9772 436.956 62.0036 437.585C61.0164 438.223 60.1896 438.643 60.1619 438.657L59.7097 437.766ZM59.3006 438.613C59.2151 438.245 59.4175 437.912 59.7116 437.765L60.16 438.658C60.2242 438.626 60.3069 438.526 60.2747 438.387L59.3006 438.613ZM60.0037 439.212C59.6936 439.181 59.3831 438.969 59.3006 438.613L60.2747 438.387C60.2453 438.261 60.1487 438.221 60.1014 438.217L60.0037 439.212ZM64.8819 440.004C63.2767 439.645 61.6463 439.38 60.0014 439.211L60.1036 438.217C61.7873 438.39 63.4563 438.661 65.1 439.028L64.8819 440.004ZM65.0738 440.026C65.0053 440.026 64.9366 440.018 64.8697 440.001L65.1122 439.031C65.0987 439.028 65.0854 439.026 65.0724 439.026L65.0738 440.026ZM65.8691 439.37C65.8039 439.79 65.4258 440.026 65.0732 440.026L65.0729 439.026C65.0409 439.026 65.0033 439.036 64.9678 439.064C64.932 439.091 64.8923 439.143 64.8809 439.216L65.8691 439.37ZM65.2756 438.511C65.6276 438.598 65.9363 438.936 65.8691 439.37L64.8809 439.216C64.8551 439.383 64.9762 439.467 65.0349 439.482L65.2756 438.511ZM61.0426 437.779C62.4666 437.945 63.8776 438.189 65.2677 438.509L65.0428 439.484C63.6891 439.171 62.3145 438.934 60.9271 438.772L61.0426 437.779ZM65.5365 435.193C65.018 435.97 64.2117 436.691 63.42 437.287C62.6214 437.888 61.8037 438.386 61.2319 438.71L60.7378 437.841C61.2877 437.529 62.066 437.054 62.8188 436.488C63.5785 435.916 64.2792 435.276 64.7046 434.638L65.5365 435.193ZM66.331 435.657C66.3422 435.748 66.3931 435.779 66.3689 435.76C66.3433 435.739 66.2799 435.7 66.1565 435.653C65.9115 435.561 65.5381 435.479 65.0513 435.411L65.1898 434.42C65.6997 434.492 66.1597 434.586 66.5088 434.718C66.6825 434.783 66.8565 434.868 66.9989 434.983C67.1427 435.1 67.2924 435.281 67.3236 435.535L66.331 435.657ZM65.0268 444.783C64.9944 444.8 65.002 444.807 65.0398 444.756C65.0744 444.708 65.1183 444.633 65.1686 444.524C65.2692 444.304 65.3728 443.995 65.475 443.609C65.6784 442.841 65.8592 441.833 66.0038 440.776C66.1481 439.721 66.2546 438.631 66.3123 437.703C66.3708 436.762 66.3763 436.025 66.331 435.657L67.3236 435.535C67.3814 436.004 67.3688 436.825 67.3104 437.765C67.2512 438.718 67.1421 439.833 66.9946 440.911C66.8474 441.987 66.66 443.04 66.4417 443.865C66.3329 444.276 66.2122 444.646 66.0778 444.94C66.0105 445.087 65.9343 445.227 65.8465 445.347C65.7618 445.462 65.6446 445.589 65.4855 445.671L65.0268 444.783ZM50.3659 445.186C50.3095 444.992 50.16 444.912 50.1477 444.905C50.1103 444.884 50.0826 444.876 50.0824 444.876C50.0781 444.874 50.0932 444.879 50.1407 444.886C50.2302 444.901 50.3725 444.916 50.5692 444.932C50.9586 444.962 51.5184 444.99 52.199 445.013C53.558 445.058 55.3758 445.085 57.2244 445.087C59.0734 445.088 60.9475 445.064 62.42 445.007C63.157 444.978 63.7873 444.941 64.2611 444.896C64.4986 444.874 64.6897 444.85 64.832 444.825C64.9933 444.797 65.039 444.777 65.0268 444.783L65.4855 445.671C65.3467 445.743 65.1621 445.783 65.003 445.81C64.8249 445.841 64.6054 445.868 64.3555 445.892C63.8547 445.939 63.2033 445.977 62.4588 446.006C60.9681 446.064 59.0796 446.088 57.2237 446.087C55.3675 446.085 53.5382 446.058 52.1654 446.012C51.48 445.989 50.9027 445.961 50.4909 445.929C50.2869 445.913 50.1127 445.895 49.9829 445.874C49.9207 445.864 49.8506 445.851 49.787 445.831C49.7572 445.822 49.7064 445.804 49.6526 445.774C49.6239 445.757 49.4647 445.669 49.4055 445.465L50.3659 445.186ZM55.088 435.629C54.4646 436.646 53.2278 438.946 52.1696 441.084C51.6412 442.152 51.1621 443.171 50.8287 443.961C50.6615 444.358 50.5352 444.688 50.4575 444.933C50.4184 445.057 50.3953 445.148 50.3842 445.21C50.3692 445.294 50.3881 445.262 50.3659 445.186L49.4056 445.465C49.3581 445.301 49.3822 445.132 49.3999 445.033C49.4216 444.912 49.4586 444.775 49.504 444.632C49.5954 444.343 49.7354 443.981 49.9073 443.573C50.252 442.755 50.7413 441.716 51.2734 440.641C52.3362 438.493 53.5886 436.162 54.2355 435.106L55.088 435.629ZM53.2704 440.34C60.6304 439.225 64.9318 440.297 65.1648 440.358L64.9111 441.325C64.7905 441.294 60.6272 440.237 53.4201 441.329L53.2704 440.34ZM52.6058 441.24C52.5134 440.76 52.8818 440.399 53.2694 440.34L53.4211 441.328C53.457 441.323 53.5023 441.302 53.539 441.256C53.5772 441.209 53.6037 441.134 53.5877 441.051L52.6058 441.24ZM53.5209 441.861C53.142 441.917 52.6939 441.698 52.6058 441.24L53.5877 441.051C53.5723 440.971 53.5247 440.921 53.487 440.897C53.4495 440.873 53.4098 440.866 53.3745 440.872L53.5209 441.861ZM64.7452 441.844C64.7388 441.842 60.5629 440.792 53.5227 441.861L53.3727 440.872C60.5691 439.78 64.8805 440.847 64.9873 440.874L64.7452 441.844ZM64.7456 441.844L64.7454 441.844L64.9871 440.874L64.9874 440.874L64.7456 441.844ZM65.4851 441.677C65.2756 441.854 64.9937 441.908 64.7409 441.843L64.9921 440.875C64.9674 440.868 64.9426 440.868 64.9191 440.873C64.8956 440.878 64.8674 440.89 64.84 440.913L65.4851 441.677ZM65.7304 440.904C65.8117 441.2 65.701 441.495 65.4851 441.677L64.84 440.913C64.7816 440.963 64.7362 441.06 64.7661 441.169L65.7304 440.904ZM65.1636 440.358C65.4178 440.424 65.6513 440.616 65.7304 440.904L64.7661 441.169C64.7939 441.27 64.867 441.314 64.9124 441.325L65.1636 440.358ZM64.8998 440.361L64.8998 440.361L65.1762 441.322L65.1761 441.322L64.8998 440.361ZM52.0249 442.977C56.5247 442.526 61.0677 442.526 65.5676 442.976L65.468 443.971C61.0344 443.527 56.5582 443.528 52.1247 443.972L52.0249 442.977ZM51.8943 443.941L51.8943 443.941L52.2553 443.008L52.2553 443.008L51.8943 443.941ZM52.2311 443.164C52.2193 443.085 52.1753 443.033 52.1386 443.007C52.1023 442.982 52.064 442.974 52.031 442.977L52.1186 443.973C51.7411 444.006 51.3106 443.769 51.2421 443.312L52.2311 443.164ZM52.0562 443.436C52.0915 443.432 52.1357 443.414 52.1732 443.372C52.212 443.329 52.2434 443.257 52.2325 443.174L51.2408 443.302C51.1784 442.819 51.5656 442.481 51.9528 442.441L52.0562 443.436ZM65.5524 443.437C61.0675 442.987 56.5394 442.986 52.0544 443.436L51.9547 442.441C56.506 441.985 61.101 441.985 65.6523 442.442L65.5524 443.437ZM65.3654 443.186C65.3592 443.267 65.3905 443.334 65.4279 443.374C65.4642 443.414 65.5064 443.431 65.5405 443.436L65.6642 442.443C66.034 442.489 66.398 442.806 66.3624 443.264L65.3654 443.186ZM65.5594 442.976C65.526 442.976 65.4861 442.988 65.4492 443.018C65.4116 443.05 65.3716 443.107 65.3654 443.186L66.3624 443.264C66.3275 443.714 65.9302 443.975 65.5619 443.976L65.5594 442.976ZM65.5759 442.977C65.5718 442.977 65.5678 442.976 65.5638 442.976L65.5575 443.976C65.5248 443.976 65.4922 443.974 65.4597 443.97L65.5759 442.977Z" fill="#4C3939"/>
</g>
<g style="mix-blend-mode:overlay" opacity="0.4">
<path d="M54.9955 434.872C55.0282 434.834 55.0552 434.807 55.069 434.807C55.1744 434.807 56.5982 434.737 58.4202 434.702C58.7303 435.862 58.9203 437.044 58.988 438.234C57.5436 437.224 56.2071 436.099 54.9955 434.872V434.872Z" fill="#4C3939"/>
<path d="M54.9955 434.872C55.0282 434.834 55.0552 434.807 55.069 434.807C55.1744 434.807 56.5982 434.737 58.4202 434.702C58.7303 435.862 58.9203 437.044 58.988 438.234C57.5436 437.224 56.2071 436.099 54.9955 434.872V434.872Z" stroke="#4C3939"/>
</g>
<path d="M135.379 240.496C135.379 240.496 142.536 320.512 142.131 333.788C141.725 347.064 140.509 428.871 140.509 428.871C140.509 428.871 130.778 433.536 120.641 428.871C120.641 428.871 114.559 378.28 111.721 363.21C108.883 348.14 109.694 327.688 109.694 327.688L95.0973 295.754L69.8889 429.911C69.8889 429.911 56.9841 432.818 50.9022 429.23C50.9022 429.23 52.1186 403.755 50.9022 378.639C49.6858 353.522 52.1186 335.223 55.7677 325.535C55.7677 325.535 47.6643 274.223 49.2862 240.496H135.379Z" fill="#2D2B72"/>
<g style="mix-blend-mode:overlay" opacity="0.6">
<path d="M71.7981 419.75C71.7981 419.75 63.011 423.068 51.2253 419.75V421.934C57.7424 423.921 64.8147 423.966 71.3635 422.063L71.7981 419.75Z" fill="white"/>
</g>
<g style="mix-blend-mode:overlay" opacity="0.6">
<path d="M140.646 419.75C140.646 419.75 131.311 423.068 119.525 419.75L119.833 422.249C119.833 422.249 129.991 425.293 140.611 422.063L140.646 419.75Z" fill="white"/>
</g>
<g style="mix-blend-mode:overlay" opacity="0.6">
<path d="M49.5173 262.3C49.5355 262.3 49.5536 262.298 49.5715 262.296C68.4286 259.326 65.3322 240.828 65.2989 240.642C65.2719 240.495 65.116 240.395 64.95 240.418C64.7841 240.442 64.6707 240.579 64.6964 240.726C64.7291 240.908 67.7297 258.889 49.4643 261.765C49.309 261.789 49.2006 261.915 49.2143 262.054C49.2281 262.193 49.3596 262.3 49.5173 262.3V262.3Z" fill="#030F1C"/>
</g>
<g style="mix-blend-mode:overlay" opacity="0.6">
<path d="M137.153 258.529C137.293 258.529 137.415 258.444 137.449 258.323C137.482 258.203 137.419 258.077 137.294 258.02C137.162 257.959 124.113 251.788 124.803 240.699C124.807 240.627 124.78 240.557 124.726 240.504C124.672 240.451 124.596 240.419 124.515 240.415C124.434 240.41 124.355 240.434 124.294 240.482C124.234 240.53 124.198 240.597 124.194 240.669C123.482 252.108 136.877 258.436 137.012 258.498C137.055 258.518 137.104 258.529 137.153 258.529Z" fill="#030F1C"/>
</g>
<g style="mix-blend-mode:overlay" opacity="0.6">
<path d="M135.379 240.496L135.764 245.876C101.872 257.764 49.1164 249.468 49.1164 249.468L49.2861 240.496H135.379Z" fill="#030F1C"/>
</g>
<g style="mix-blend-mode:overlay" opacity="0.6">
<path d="M95.0972 295.754L103.212 269.023C103.212 269.023 107.464 283.5 105.639 299.163C103.815 314.826 105.639 318.818 105.639 318.818L95.0972 295.754Z" fill="#030F1C"/>
</g>
<g style="mix-blend-mode:overlay" opacity="0.6">
<path d="M137.005 260.037C137.005 260.037 133.419 258.618 132 263.641C130.581 268.665 132.263 293.422 133.885 307.416C135.507 321.409 137.459 342.758 137.767 353.881C138.076 365.004 141.482 367.164 141.482 367.164C141.482 367.164 142.535 335.511 141.933 327.32C141.332 319.128 139.772 286.5 137.005 260.037Z" fill="white"/>
</g>
<g style="mix-blend-mode:overlay" opacity="0.6">
<path d="M92.7319 308.682C92.7319 308.682 81.1925 320.563 78.5151 336.504C75.8378 352.446 73.6078 384.081 72.2562 392.213C70.9047 400.346 67.7125 409.347 73.6208 410.049L92.7319 308.682Z" fill="white"/>
</g>
<g style="mix-blend-mode:overlay" opacity="0.6">
<path d="M109.599 332.381C109.609 332.381 109.619 332.38 109.629 332.379C109.709 332.372 109.783 332.337 109.835 332.282C109.886 332.227 109.91 332.156 109.902 332.084C109.893 331.997 108.974 323.254 112.928 317.421C113.015 317.294 112.968 317.128 112.824 317.051C112.679 316.975 112.492 317.016 112.406 317.144C108.346 323.131 109.286 332.048 109.296 332.137C109.311 332.275 109.442 332.38 109.599 332.381V332.381Z" fill="#030F1C"/>
</g>
<path d="M3.145 189.689C-0.301408 182.39 -0.507548 174.772 2.91661 171.247C10.5011 163.438 29.1113 146.214 39.1298 138.81C46.1771 133.601 52.1616 130.11 57.2423 128.378C57.713 128.138 58.2073 127.935 58.7191 127.774C64.1252 126.099 80.7491 122.99 80.7491 122.99L101.659 131.312L112.916 124.425C112.916 124.425 133.324 132.199 136.567 136.026C136.585 136.047 136.601 136.076 136.619 136.1C143.58 141.227 149.905 149.537 154.916 157.494C158.791 163.708 162.257 170.116 165.296 176.686C165.535 177.203 166.06 177.574 166.682 177.667C167.305 177.76 167.938 177.562 168.356 177.143L186.541 159.979C185.661 159.351 185.474 158.231 186.11 157.404L189.11 153.522C189.788 152.644 192.472 152.54 193.465 153.14L207.904 161.961C208.897 162.562 209.015 165.188 208.336 166.067L205.856 169.354C205.19 170.214 203.871 170.448 202.882 169.882C186.684 195.585 180.212 206.941 172.205 208.591C167.963 209.466 163.744 207.777 158.354 204.424C149.101 198.679 140.986 191.618 134.337 183.528C133.845 188.978 133.488 193.653 133.459 196.664C133.379 205.068 134.341 214.789 134.608 225.728C134.734 230.907 140.284 241.087 135.756 244.386C121.145 255.03 49.6638 244.386 49.6638 244.386C49.778 238.176 50.6847 231.997 52.3668 225.967C55.8123 214.381 55.3402 208.505 54.9348 201.688C54.7173 198.03 53.9941 181.223 53.3286 165.837C43.0617 172.363 28.1505 181.666 26.7346 182.96C25.549 184.048 26.6516 187.335 30.2872 197.059C30.5452 197.749 31.3413 199.869 31.7835 201.043L31.7891 201.041C32.9041 200.643 34.1724 201.12 34.622 202.107L36.6088 206.468C37.0583 207.455 35.6684 209.49 34.5535 209.887L18.2517 215.631C17.1366 216.028 14.6011 214.659 14.1516 213.672L12.435 210.022C12.1319 209.352 12.2792 208.589 12.8162 208.045L12.7995 208.04C8.82918 201.027 5.7798 195.27 3.145 189.689Z" fill="#34AD82"/>
<g style="mix-blend-mode:overlay" opacity="0.6">
<path d="M136.634 158.76C136.921 158.995 137.21 159.239 137.503 159.501C145 166.176 141.713 177.003 142.656 182.287C143.599 187.572 160.767 194.303 158.354 204.424C149.101 198.679 140.985 191.618 134.337 183.528C135.018 175.976 135.956 166.936 136.634 158.76Z" fill="#030F1C"/>
</g>
<path d="M169.507 187.417C169.63 187.417 169.74 187.352 169.788 187.253C169.836 187.153 169.812 187.038 169.727 186.96C166.14 183.687 166.681 179.186 166.687 179.141C166.696 179.07 166.673 178.998 166.623 178.942C166.572 178.886 166.499 178.85 166.419 178.842C166.338 178.832 166.257 178.852 166.193 178.897C166.129 178.941 166.089 179.007 166.081 179.079C166.055 179.273 165.496 183.874 169.288 187.335C169.346 187.388 169.425 187.417 169.507 187.417Z" fill="#0B122D"/>
<g style="mix-blend-mode:overlay" opacity="0.6">
<path d="M202.83 169.857L186.678 160.081C185.708 159.494 197.657 162.278 200.755 166.68C202.76 169.529 205.275 167.728 205.984 166.304C206.978 164.305 205.348 160.399 205.348 160.399C205.363 160.38 207.712 161.873 207.727 161.853L207.904 161.961C208.897 162.562 209.015 165.188 208.336 166.067L205.856 169.354C205.53 169.776 205.028 170.066 204.461 170.16C203.893 170.254 203.307 170.145 202.83 169.857Z" fill="#030F1C"/>
</g>
<path d="M135.707 170.115C135.858 170.115 135.986 170.018 136.008 169.886C138.04 157.941 137.076 149.301 137.066 149.215C137.046 149.069 136.898 148.962 136.732 148.975C136.651 148.982 136.577 149.017 136.526 149.073C136.475 149.128 136.451 149.199 136.46 149.27C136.469 149.356 137.425 157.933 135.405 169.806C135.393 169.876 135.414 169.948 135.462 170.006C135.51 170.063 135.581 170.102 135.661 170.112C135.677 170.114 135.692 170.115 135.707 170.115V170.115Z" fill="#0B122D"/>
<path d="M127.512 234.609C127.566 234.609 127.618 234.596 127.665 234.573C132.983 231.857 134.826 226.045 134.902 225.799C134.945 225.656 134.849 225.508 134.688 225.469C134.526 225.43 134.358 225.514 134.313 225.657C134.296 225.715 132.458 231.503 127.36 234.106C127.24 234.167 127.182 234.291 127.218 234.409C127.254 234.527 127.374 234.609 127.512 234.609V234.609Z" fill="#0B122D"/>
<g style="mix-blend-mode:overlay" opacity="0.6">
<path d="M53.4781 165.742C57.9946 162.87 61.5886 160.55 62.6911 159.713C64.2121 158.559 65.6132 157.43 66.8944 156.326C67.5143 161.5 68.0638 173.693 63.738 193.526C59.2021 214.322 66.8647 227.821 75.478 235.894C82.7913 242.748 97.9135 244.386 108.771 249.117C87.9798 250.127 49.6638 244.386 49.6638 244.386C49.6638 244.386 49.1948 235.511 53.3251 222.501C56.5411 215.885 54.4208 179.571 53.4781 165.742Z" fill="#030F1C"/>
</g>
<g style="mix-blend-mode:overlay" opacity="0.6">
<path d="M93.8367 132.942L70.8002 124.96L80.7489 122.99L93.8367 132.942V132.942Z" fill="#030F1C"/>
</g>
<path d="M60.3452 160.193C60.3763 160.193 60.4073 160.189 60.4369 160.181C70.5567 157.353 74.4884 146.226 74.5271 146.113C74.5598 146.021 74.534 145.92 74.4594 145.849C74.3848 145.778 74.2729 145.748 74.1662 145.77C74.0596 145.792 73.9746 145.863 73.9436 145.956C73.9061 146.065 70.0638 156.925 60.2536 159.666C60.1102 159.707 60.0213 159.833 60.0442 159.965C60.067 160.096 60.1949 160.193 60.3452 160.193L60.3452 160.193Z" fill="#0B122D"/>
<g style="mix-blend-mode:overlay" opacity="0.6">
<path d="M21.2173 184.459C21.6347 189.151 23.2321 193.702 25.8926 197.777C26.3872 198.523 29.0178 200.459 31.3313 199.846C26.8687 187.945 25.3203 184.032 26.7346 182.96C30.6145 180.018 45.0865 171.055 50.7522 167.472C49.3439 166.63 46.5052 165.599 43.6337 166.867C38.9091 168.96 20.6016 178.649 21.2173 184.459Z" fill="white"/>
</g>
<path d="M18.9201 188.211C19.0719 188.211 19.2003 188.112 19.2214 187.979C19.25 187.801 19.984 183.623 25.5493 183.363C25.7161 183.354 25.8433 183.228 25.8345 183.08C25.8257 182.933 25.6841 182.819 25.5172 182.825C19.4399 183.109 18.6248 187.856 18.6177 187.904C18.5948 188.052 18.7109 188.188 18.8773 188.208C18.8915 188.21 18.9058 188.211 18.9201 188.211V188.211Z" fill="#0B122D"/>
<g style="mix-blend-mode:overlay" opacity="0.6">
<path d="M13.6399 207.516L31.7891 201.041C32.8791 200.652 23.6352 207.908 17.7788 207.749C13.9871 207.646 14.2861 210.497 15.233 211.808C16.561 213.648 21.138 214.614 21.138 214.614C21.148 214.636 18.4407 215.538 18.4515 215.559L18.2516 215.631C17.1366 216.028 14.601 214.659 14.1515 213.672L12.4349 210.023C12.2191 209.549 12.2247 209.018 12.4507 208.548C12.6767 208.078 13.1045 207.707 13.6399 207.516Z" fill="#030F1C"/>
</g>
<path fill-rule="evenodd" clip-rule="evenodd" d="M98.7135 125.929C87.0703 119.476 83.5282 113.78 83.5282 113.78L80.7491 122.989L93.8364 132.942C94.3825 131.669 95.0498 130.439 95.8311 129.265L101.659 131.312L98.7135 125.929ZM101.659 131.312L102.975 125.667C108.177 123.571 108.456 119.76 108.456 119.76L112.916 124.425L108.413 133.148L105.06 129.231L101.659 131.312Z" fill="#2D2B72"/>
<g style="mix-blend-mode:overlay" opacity="0.6">
<path d="M98.7137 125.929L101.659 131.312L95.8309 129.265C96.5862 128.025 97.5593 126.899 98.7137 125.929V125.929Z" fill="#030F1C"/>
</g>
<g style="mix-blend-mode:overlay" opacity="0.6">
<path d="M102.975 125.667L101.659 131.312L105.06 129.231L102.975 125.667V125.667Z" fill="#030F1C"/>
</g>
<path fill-rule="evenodd" clip-rule="evenodd" d="M208.554 134.607C208.558 134.599 208.561 134.591 208.563 134.582C208.632 134.217 210.396 125.076 215.456 120.598C217.531 118.672 220.046 117.158 222.832 116.157C224.284 115.649 225.612 116.856 225.612 116.856C226.345 116.591 236.722 115.119 237.328 117.703C237.744 119.475 237.271 120.184 236.885 120.764C236.625 121.154 236.404 121.485 236.519 122.042C236.718 123.009 238.24 124.435 238.24 124.435C238.614 125.083 238.529 125.864 238.022 126.437L237.449 127.085C237.421 127.117 238.301 129.123 238.301 129.123C238.529 129.627 238.513 130.192 238.258 130.686C238.003 131.18 237.53 131.559 236.95 131.736C236.887 131.756 236.851 131.814 236.866 131.871L237.4 133.856C237.888 135.592 236.706 137.353 234.749 137.804C232.588 138.265 230.368 138.016 229.468 137.915C229.197 137.884 229.046 137.867 229.051 137.887C229.225 138.506 229.455 140.381 226.521 141.814C223.167 143.451 217.807 146.874 217.181 147.275L207.219 161.543L193.552 153.194L206.713 138.333L208.554 134.607ZM101.659 131.312L99.7501 127.823L102.427 128.015L101.659 131.312ZM33.2696 210.34L18.8377 215.424L28.8405 233.695C28.8356 233.702 28.8303 233.709 28.8251 233.717C28.8237 233.719 28.8223 233.721 28.8208 233.723C29.0079 234.06 29.2134 234.411 29.4279 234.768L29.4349 234.78L29.4355 234.78C29.9091 235.566 30.4461 236.391 31.0647 237.235C33.0202 239.9 35.4238 242.936 42.5721 248.866C49.7203 254.796 52.674 256.738 54.6782 256.035C55.483 255.752 55.5674 255.27 55.6487 254.804C55.7028 254.495 55.7557 254.193 56.0186 253.962C56.3109 253.706 56.8645 253.781 57.589 253.88C58.496 254.003 59.6707 254.164 60.935 253.755C62.2793 253.32 62.0664 252.655 61.8662 252.029C61.7532 251.676 61.6442 251.336 61.8217 251.056C62.0013 250.774 62.374 250.774 62.8475 250.775C63.6708 250.776 64.7988 250.778 65.7473 249.293C66.0908 248.756 65.982 248.389 65.8576 247.97C65.6842 247.387 65.4804 246.7 66.4264 245.305C68.0514 242.907 55.3198 236.428 53.7493 235.958C52.1788 235.488 51.3729 230.165 51.3729 230.165C51.3729 230.165 46.8786 230.623 43.7355 229.762C42.3128 229.357 41.1456 228.445 40.5155 227.245L40.3816 226.9L40.3688 226.903L33.2696 210.34Z" fill="#FFB7B6"/>
<path d="M55.4758 241.401C55.5161 241.339 55.5827 241.294 55.6609 241.275C55.7391 241.257 55.8223 241.267 55.8923 241.303L65.9257 246.425C66.0452 246.486 66.1035 246.611 66.0677 246.729C66.0319 246.847 65.911 246.929 65.773 246.928C65.7195 246.929 65.667 246.916 65.6209 246.892L55.5874 241.77C55.5174 241.734 55.4663 241.675 55.4453 241.606C55.4244 241.537 55.4353 241.463 55.4758 241.401Z" fill="#0B122D"/>
<path d="M50.4882 245.27C50.5283 245.208 50.595 245.162 50.6732 245.144C50.7514 245.125 50.8347 245.135 50.9046 245.171L61.9743 250.823C62.0938 250.884 62.152 251.009 62.1163 251.126C62.0805 251.244 61.9596 251.326 61.8216 251.326C61.7681 251.326 61.7156 251.314 61.6695 251.29L50.5998 245.638C50.5298 245.603 50.4786 245.544 50.4577 245.475C50.4367 245.406 50.4477 245.332 50.4882 245.27Z" fill="#0B122D"/>
<path d="M48.7955 249.741C48.8399 249.681 48.9094 249.64 48.9887 249.625C49.068 249.611 49.1505 249.625 49.2179 249.665L56.1867 253.737C56.2991 253.803 56.3496 253.926 56.3108 254.04C56.272 254.154 56.1532 254.232 56.0186 254.232C55.9589 254.232 55.9005 254.216 55.851 254.187L48.8821 250.115C48.7417 250.033 48.7029 249.866 48.7955 249.741Z" fill="#0B122D"/>
<path fill-rule="evenodd" clip-rule="evenodd" d="M224.922 124.071C225.037 125.001 225.262 125.918 225.594 126.806L219.086 144.388L223.219 145.516L227.921 131.13C227.979 131.369 228.095 131.593 228.262 131.788C228.692 132.249 229.305 132.548 229.976 132.624C230.232 132.661 230.492 132.678 230.752 132.677C231.114 132.677 231.47 132.649 231.821 132.621L231.822 132.621L235.08 132.369C235.161 132.363 235.235 132.328 235.288 132.273C235.34 132.218 235.365 132.147 235.357 132.076C235.353 132.004 235.315 131.936 235.252 131.89C235.189 131.843 235.108 131.822 235.026 131.83L231.768 132.083C231.206 132.147 230.638 132.15 230.076 132.091C229.559 132.036 229.084 131.811 228.747 131.46C228.45 131.132 228.409 130.676 228.646 130.312C228.94 130.027 229.326 129.83 229.751 129.746L233.583 128.586C233.686 128.554 233.763 128.477 233.784 128.382C233.805 128.287 233.767 128.189 233.685 128.126C233.603 128.062 233.488 128.042 233.385 128.074L229.553 129.234C229.112 129.345 228.703 129.539 228.355 129.804L228.805 128.425C229.536 128.079 230.039 127.447 230.161 126.722L230.948 122.032C231.033 121.509 230.91 120.977 230.6 120.525L230.918 120.741L231.297 120.802L231.481 120.831C231.537 120.314 231.639 119.802 231.788 119.3C231.832 119.151 231.882 118.997 231.938 118.841L252.71 55.2884L252.127 55.1296L228.617 118.641L228.569 118.861L226.422 117.283C226.292 117.188 226.1 117.204 225.992 117.319C225.884 117.434 225.902 117.604 226.031 117.699L229.657 120.364C230.182 120.752 230.442 121.354 230.343 121.953L229.556 126.643C229.436 127.475 228.645 128.104 227.697 128.121C227.305 127.981 226.941 127.785 226.623 127.539C226.024 126.388 225.649 125.155 225.516 123.893C225.508 123.811 225.458 123.737 225.381 123.692L224.21 123.001C224.09 122.929 223.929 122.943 223.826 123.033C223.723 123.123 223.705 123.264 223.783 123.372C223.796 123.389 225.078 125.269 223.518 129.146C223.462 129.287 223.545 129.441 223.704 129.491C223.863 129.541 224.038 129.468 224.095 129.327C225.164 126.668 224.972 124.887 224.68 123.928L224.922 124.071ZM231.106 123.88C230.947 123.93 230.773 123.857 230.715 123.717C230.658 123.577 230.74 123.422 230.898 123.371L234.745 122.138C234.904 122.087 235.08 122.16 235.137 122.3C235.195 122.441 235.113 122.596 234.954 122.647L231.106 123.88ZM228.484 134.104C229.041 133.805 229.637 133.568 230.259 133.399C230.419 133.349 230.593 133.423 230.649 133.564C230.706 133.705 230.622 133.859 230.463 133.909C229.888 134.065 229.337 134.282 228.821 134.555C228.344 134.809 227.99 135.209 227.826 135.68C227.685 136.116 227.856 136.585 228.26 136.866C228.398 136.949 228.434 137.116 228.341 137.239C228.247 137.363 228.059 137.396 227.919 137.314C227.299 136.908 227.026 136.205 227.233 135.547C227.434 134.946 227.88 134.432 228.484 134.104Z" fill="black"/>
<path d="M489.831 107.069C488.511 100.818 486.398 96.1624 477.817 101.749C477.817 101.749 477.741 95.5563 474.705 93.1111C471.668 90.6658 452.485 79.7719 451.751 97.6766C451.751 97.6766 451.399 112.061 451.399 115.652C451.399 119.243 456.958 131.409 461.578 131.409C462.675 131.391 463.764 131.232 464.814 130.936C464.145 135.904 462.473 140.707 459.888 145.092L488.273 139.911C488.273 139.911 483.367 132.765 482.344 118.729C486.671 115.129 490.797 111.645 489.831 107.069Z" fill="#FFB7B6"/>
<path d="M500.051 65.1043C486.684 65.1043 486.607 76.8421 486.607 76.8421L488.725 80.3403C473.02 69.6937 464.028 79.3692 464.028 79.3692C451.399 76.8168 444.986 84.5147 444.026 93.6921C443.066 102.87 451.547 106.591 451.547 106.591L451.692 100.138C455.91 97.9414 455.089 95.4135 455.6 94.1328C457.094 100.617 469.157 103.539 471.601 105.605C474.198 107.799 474.482 112.687 475.975 112.687C477.468 112.687 476.646 105.467 481.309 103.011C487.264 99.8745 488.911 106.342 487.816 109.695C486.607 113.394 482.009 117.823 482.009 117.823L482.583 123.908C491.872 118.481 498.784 106.152 497.726 95.2027L497.726 95.2037C508.404 94.9309 512.457 91.3729 515.646 85.3544C519.016 78.9922 513.418 65.1043 500.051 65.1043Z" fill="#161B36"/>
<path d="M497.836 87.416C494.203 80.2337 488.165 76.9914 486.607 76.842C484.632 76.6527 483.931 77.5895 483.931 77.5895L483.932 77.5904C485.783 78.467 487.547 79.4962 489.203 80.666C495.485 85.0526 497.972 91.3989 497.829 97.9851C498.334 97.739 498.815 97.4513 499.266 97.1255C499.934 96.6203 501.47 94.5983 497.836 87.416Z" fill="#F76161"/>
<g style="mix-blend-mode:overlay" opacity="0.6">
<path d="M464.85 130.547C464.85 130.547 473.233 126.515 475.894 123.908C476.044 128.234 474.451 132.454 471.43 135.733C469.052 138.237 465.33 138.965 462.718 139.13C463.777 136.355 464.492 133.475 464.85 130.547Z" fill="#030F1C"/>
</g>
<path d="M462.448 99.789C462.828 99.3891 463.351 99.0781 464.919 99.1669C466.487 99.2558 468.862 100.633 468.34 100.989C467.817 101.344 466.249 100.144 465.014 100.544C463.778 100.944 463.069 101.273 462.654 101.055C462.131 100.781 462.265 99.9812 462.448 99.789Z" fill="#161B36"/>
<path d="M455.653 99.3811C455.155 99.1173 454.553 98.9808 453.1 99.5383C451.646 100.096 449.874 102.117 450.491 102.295C451.108 102.474 452.178 100.865 453.485 100.871C454.793 100.876 455.578 100.973 455.895 100.642C456.295 100.225 455.892 99.5078 455.653 99.3811Z" fill="#161B36"/>
<g style="mix-blend-mode:overlay" opacity="0.6">
<path d="M458.359 117.385C457.727 117.394 457.103 117.245 456.553 116.952C456.159 116.755 455.878 116.405 455.788 115.996C455.657 115.225 456.396 113.714 457.166 112.233C457.29 111.993 457.392 111.798 457.451 111.67C458.444 109.537 457.993 105.473 457.988 105.432C457.977 105.339 458.021 105.248 458.101 105.192C458.182 105.137 458.289 105.127 458.38 105.165C458.472 105.202 458.535 105.283 458.545 105.376C458.565 105.548 459.017 109.619 457.965 111.88C457.903 112.011 457.799 112.214 457.67 112.462C457.201 113.364 456.227 115.241 456.341 115.913C456.413 116.169 456.596 116.384 456.847 116.505C457.591 116.881 458.464 116.963 459.274 116.735C459.421 116.691 459.579 116.767 459.626 116.904C459.674 117.042 459.593 117.19 459.445 117.234C459.094 117.336 458.728 117.387 458.359 117.385V117.385Z" fill="#030F1C"/>
</g>
<path d="M457.28 122.539C457.232 122.382 457.253 122.212 457.338 122.069C457.424 121.926 457.567 121.82 457.736 121.776C458.577 121.549 460.127 121.12 461.308 120.745C462.539 120.288 463.736 119.756 464.891 119.151C465.092 119.048 465.336 119.05 465.535 119.156C465.735 119.261 465.862 119.456 465.872 119.67C465.952 121.315 465.741 124.527 462.974 125.182C459.61 125.979 457.849 124.277 457.28 122.539Z" fill="#161B36"/>
<path d="M458.743 124.59C458.743 124.59 461.638 120.809 465.773 121.673C465.773 121.673 465.779 124.626 463.113 125.292C460.243 126.008 458.743 124.59 458.743 124.59Z" fill="#E55151"/>
<path d="M466.294 104.906C465.756 104.794 465.208 104.732 464.657 104.721C464.067 104.721 463.588 105.457 463.588 106.365C463.588 107.273 464.067 108.009 464.657 108.009C465.248 108.009 465.727 107.273 465.727 106.365C465.734 105.967 465.63 105.573 465.425 105.224C465.854 105.237 466.28 105.298 466.694 105.404C467.095 105.513 467.123 105.086 466.294 104.906Z" fill="#161B36"/>
<path d="M455.609 105.589C455.113 105.485 454.607 105.424 454.099 105.407C454.092 105.407 454.086 105.404 454.079 105.404C454.075 105.404 454.07 105.406 454.066 105.406C454.011 105.405 453.973 105.404 453.973 105.404L453.968 105.421C453.431 105.508 453.01 106.199 453.01 107.048C453.01 107.956 453.489 108.692 454.079 108.692C454.67 108.692 455.148 107.956 455.148 107.048C455.156 106.651 455.053 106.26 454.849 105.911C455.242 105.931 455.631 105.99 456.01 106.087C456.411 106.196 456.439 105.77 455.609 105.589Z" fill="#161B36"/>
<path d="M478.866 92.411C478.748 92.4109 478.643 92.3419 478.602 92.2382C475.573 84.4185 466.792 80.9204 466.703 80.8859C466.61 80.8501 466.545 80.7706 466.532 80.6775C466.519 80.5844 466.56 80.4919 466.64 80.435C466.72 80.3781 466.827 80.3656 466.919 80.4021C467.01 80.4374 476.017 84.0256 479.129 92.0595C479.182 92.1957 479.107 92.3459 478.961 92.3953C478.931 92.4056 478.898 92.4109 478.866 92.411Z" fill="white"/>
<path d="M509.374 88.4306C509.263 88.4307 509.162 88.3687 509.117 88.2728C509.073 88.177 509.093 88.0656 509.17 87.9893C515.065 82.0996 511.213 74.6759 511.174 74.6017C511.105 74.4722 511.162 74.3151 511.3 74.2505C511.438 74.186 511.606 74.2384 511.676 74.3677C511.717 74.4453 515.738 82.1948 509.579 88.3477C509.526 88.4006 509.452 88.4306 509.374 88.4306Z" fill="white"/>
<path d="M485.039 105.632C483.689 105.203 482.384 106.35 481.396 107.647L481.391 107.654C480.712 108.573 480.13 109.552 479.654 110.577C479.594 110.711 479.661 110.864 479.804 110.92C479.946 110.977 480.111 110.914 480.171 110.78C480.615 109.816 481.158 108.894 481.793 108.029C482.371 107.933 482.965 108.035 483.47 108.315C483.974 108.664 484.296 109.197 484.356 109.781C484.378 109.907 484.495 110 484.632 110C484.647 110 484.663 109.999 484.678 109.996C484.751 109.985 484.817 109.947 484.86 109.891C484.903 109.834 484.921 109.764 484.908 109.695C484.827 108.967 484.416 108.306 483.781 107.879C483.32 107.606 482.784 107.465 482.239 107.476C483.056 106.528 483.989 105.852 484.859 106.129C485.005 106.174 485.163 106.101 485.213 105.964C485.263 105.827 485.185 105.679 485.039 105.632H485.039Z" fill="#0B122D"/>
<path d="M464.398 131.004C464.266 131.004 464.151 130.917 464.124 130.796C464.096 130.675 464.163 130.553 464.284 130.502C464.379 130.463 473.77 126.534 477.735 121.785C477.796 121.711 477.895 121.673 477.994 121.686C478.093 121.699 478.178 121.761 478.215 121.848C478.253 121.934 478.238 122.033 478.176 122.107C474.125 126.961 464.902 130.82 464.511 130.981C464.476 130.996 464.437 131.004 464.398 131.004Z" fill="#0B122D"/>
<path fill-rule="evenodd" clip-rule="evenodd" d="M498.565 452.376C497.361 451.93 496.588 450.823 496.637 449.613C496.62 449.737 496.603 449.861 496.587 449.986C496.785 448.12 497.116 445.647 497.666 442.389C498.166 439.433 499.297 438.587 499.297 438.587C499.297 438.587 509.053 436.759 510.295 437.585C510.913 437.995 511.589 439.368 512.428 441.069C512.721 441.664 513.034 442.299 513.371 442.947C513.627 443.44 513.895 443.942 514.166 444.452C515.554 447.059 517.037 449.845 517.524 452.27C517.351 451.532 517.131 450.805 516.866 450.092C516.277 450.983 515.449 451.716 514.465 452.217C511.01 453.999 501.441 454.145 498.565 452.376ZM412.413 448.373C414.261 447.286 427.33 443.78 427.33 443.78L450.988 438.249C450.988 438.249 453.604 442.614 453.597 446.884C453.616 448.469 453.211 450.033 452.418 451.434C451.764 452.553 450.514 453.254 449.15 453.269C442.558 453.366 417.326 453.66 414.348 453.192C410.851 452.642 410.565 449.461 412.413 448.373Z" fill="#7686D6"/>
<path fill-rule="evenodd" clip-rule="evenodd" d="M509.354 407.287L510.109 436.481C510.109 436.481 512.439 443.947 512.346 444.441C511.77 447.493 499.477 448.582 498.862 444.557C498.769 443.947 499.204 437.018 499.204 437.018L495.589 408.32L509.354 407.287ZM437.774 438.32C441.098 435.665 439.616 420.563 439.616 420.563L451.005 422.248C451.005 422.248 450.796 436.794 450.988 438.248C451.18 439.703 443.692 443.69 437.472 444.589C431.252 445.489 426.103 445.118 426.007 444.573C425.97 444.362 427.104 443.87 428.746 443.157C431.361 442.021 435.264 440.326 437.774 438.32Z" fill="#FFB7B6"/>
<g style="mix-blend-mode:overlay" opacity="0.6">
<path d="M427.279 453.45C428.36 451.029 430.86 449.429 433.664 449.363C439.294 449.16 440.409 453.364 440.409 453.364L427.279 453.45Z" fill="#030F1C"/>
</g>
<path fill-rule="evenodd" clip-rule="evenodd" d="M514.465 452.217C515.449 451.716 516.277 450.983 516.866 450.092C516.866 450.092 517.884 452.759 517.69 454.018V455.051H496.253V454.018C496.253 454.018 496.346 451.702 496.637 449.613C496.589 450.823 497.361 451.93 498.565 452.376C501.441 454.145 511.01 453.999 514.465 452.217ZM449.15 453.269C450.514 453.254 451.764 452.553 452.418 451.434C452.586 451.142 452.737 450.841 452.868 450.533V450.533C452.708 451.377 452.476 452.207 452.176 453.016C451.713 454.238 450.476 455.055 449.088 455.055L413.92 455.008C412.671 455.007 411.626 454.122 411.5 452.96L411.287 451.007L411.381 450.998C411.664 451.992 412.608 452.918 414.348 453.192C417.326 453.66 442.558 453.366 449.15 453.269Z" fill="#2D2B72"/>
<path d="M443.903 226.317C437.503 272.078 434.03 309.461 433.85 315.858C433.67 322.218 437.703 429.918 437.703 429.918C437.703 429.918 448.42 430.919 453.115 428.713C453.115 428.713 456.706 390.937 458.363 377.978C460.02 365.018 464.248 337.105 464.248 324.62C468.447 307.607 471.945 287.151 471.945 287.151C471.945 287.151 474.466 301.799 477.928 321.705C485.245 363.777 496.762 429.338 497.551 429.747C498.414 430.195 504.847 431.197 511.787 428.869C511.787 428.869 510.739 409.412 511.016 398.382C511.292 387.353 510.617 342.634 506.474 323.333C506.474 323.333 508.431 305.98 511.005 293.08C512.638 284.897 514.893 271.613 512.905 259.322C510.378 243.704 505.702 239.914 502.813 225.072C485.347 218.008 462.109 217.544 443.903 226.317Z" fill="#F76161"/>
<g style="mix-blend-mode:overlay" opacity="0.6">
<path d="M471.945 287.151L465.558 260.933C465.558 260.933 458.777 275.307 459.511 286.46C460.245 297.613 464.652 296.975 465.804 318.037L471.945 287.151Z" fill="#030F1C"/>
</g>
<g style="mix-blend-mode:overlay" opacity="0.6">
<path d="M438.958 264.503C438.958 264.503 444.586 266.183 444.089 272.078C443.592 277.973 440.469 308.885 440.415 319.809C440.361 330.733 442.208 360.947 440.415 366.758C438.621 372.568 435.63 373.041 435.63 373.041C435.63 373.041 434.049 328.408 433.85 315.858C434.53 302.937 438.958 264.503 438.958 264.503Z" fill="white"/>
</g>
<g style="mix-blend-mode:overlay" opacity="0.6">
<path d="M476.051 310.895C476.051 310.895 481.868 312.174 484.478 323.196C487.087 334.219 492.907 373.266 494.098 382.679C495.289 392.092 491.345 397.779 491.345 397.779L476.051 310.895Z" fill="white"/>
</g>
<path d="M508.523 243.142C504.121 243.142 500.631 241.874 498.152 239.375C493.488 234.674 494.018 227.362 494.043 227.053C494.047 226.983 494.082 226.919 494.138 226.873C494.195 226.828 494.269 226.805 494.343 226.811C494.497 226.822 494.613 226.948 494.602 227.092C494.596 227.166 494.068 234.49 498.565 239.02C500.934 241.407 504.284 242.618 508.523 242.618C508.678 242.618 508.803 242.735 508.803 242.88C508.803 243.024 508.678 243.142 508.523 243.142V243.142Z" fill="#0B122D"/>
<path d="M441.227 244.295C441.098 244.295 440.985 244.212 440.955 244.095C440.924 243.978 440.983 243.856 441.097 243.8C441.197 243.751 451.099 238.801 450.576 229.915C450.569 229.771 450.687 229.649 450.84 229.641C450.994 229.633 451.126 229.743 451.135 229.886C451.679 239.113 441.46 244.215 441.356 244.265C441.316 244.285 441.272 244.295 441.227 244.295V244.295Z" fill="#0B122D"/>
<g style="mix-blend-mode:overlay" opacity="0.6">
<path d="M443.903 226.317L442.805 234.298C442.805 234.298 465.283 246.303 507.004 240.116C507.004 240.116 503.387 230 502.813 225.072L443.903 226.317Z" fill="#030F1C"/>
</g>
<path fill-rule="evenodd" clip-rule="evenodd" d="M519.86 165.758C522.081 171.379 524.865 178.428 528.671 187.321C532.541 196.365 531.594 203.775 519.909 205.973C517.336 206.456 509.221 207.859 500.381 209.282C501.062 214.673 502.084 220.022 503.441 225.301C503.718 226.394 503.251 227.534 502.264 228.173C492.8 234.13 454.019 236.664 444.355 229.56C443.351 228.804 442.855 227.602 443.057 226.411C445.689 210.048 444.507 199.258 442.539 194.602C442.245 193.906 441.953 193.25 441.671 192.618C440.464 189.906 439.446 187.618 439.231 184.375C434.013 190.911 425.946 199.772 419.001 199.683C413.59 199.614 407.32 195.848 395.39 177.952C395.111 177.533 394.369 176.433 393.37 174.95C389.884 169.777 383.266 159.953 382.248 158.254C387.018 158.693 391.498 156.049 393.126 151.832L404.971 166.129L418.288 180.17C418.592 180.492 419.053 180.645 419.506 180.573C419.96 180.501 420.341 180.215 420.515 179.816C422.732 174.756 425.259 169.82 428.084 165.032C430.507 160.854 433.336 156.894 436.535 153.202C440.331 148.989 445.276 145.815 450.846 144.018C450.898 143.999 462.51 140.31 462.51 140.31C462.51 140.31 457.797 155.562 468.74 154.926C483.819 154.05 487.841 138.574 487.841 138.574C487.841 138.574 496.377 140.663 500.659 141.966C511.405 144.353 512.701 147.634 519.86 165.758ZM499.896 195.805C503.296 194.666 507.894 193.069 510.242 192.249C510.635 192.113 510.949 191.83 511.111 191.468C511.273 191.107 511.267 190.698 511.096 190.341C509.647 187.322 506.069 179.883 502.891 173.406C502.579 177.707 501.996 181.987 501.144 186.223C500.474 189.384 500.056 192.586 499.896 195.805Z" fill="#2D2B72"/>
<path fill-rule="evenodd" clip-rule="evenodd" d="M487.841 138.574L497.492 141.051C497.492 141.051 499.35 150.872 483.133 152.787C484.533 158.646 474.229 167.425 465.292 154.723C465.292 154.723 481.64 157.603 487.841 138.574ZM465.292 154.723C455.416 164.713 452.615 152.856 457.038 149.616C452.172 145.756 453.315 143.24 453.315 143.24L462.51 140.31C458.991 152.339 465.292 154.723 465.292 154.723Z" fill="#F76161"/>
<g style="mix-blend-mode:overlay" opacity="0.6">
<path d="M418.606 186.75C414.437 182.59 400.541 168.245 404.972 166.127L418.286 180.169C418.591 180.491 419.052 180.644 419.506 180.572C419.96 180.501 420.342 180.215 420.516 179.816C422.732 174.755 425.259 169.818 428.084 165.03C429.914 168.488 426.626 178.163 420.694 186.58C420.47 186.899 420.101 187.105 419.694 187.139C419.287 187.172 418.886 187.028 418.606 186.75V186.75Z" fill="white"/>
</g>
<path d="M417.211 187.459C417.122 187.459 417.041 187.409 417.007 187.332C416.972 187.255 416.99 187.166 417.052 187.106C419.666 184.585 419.272 181.117 419.268 181.082C419.254 180.968 419.341 180.865 419.463 180.852C419.585 180.838 419.695 180.92 419.709 181.034C419.913 183.367 419.065 185.673 417.371 187.395C417.329 187.436 417.271 187.459 417.211 187.459V187.459Z" fill="#0B122D"/>
<g style="mix-blend-mode:overlay" opacity="0.6">
<path d="M439.288 180.918C439.545 178.102 441.059 172.619 442.666 165.341C442.117 165.807 441.595 166.299 441.102 166.817C433.914 174.349 439.334 181.454 436.142 185.739C429.791 194.266 428.413 189.464 422.947 194.163C421.342 195.542 420.679 197.272 420.585 199.538C425.157 199.164 433.999 191.602 439.393 185.899C439.152 184.248 439.116 182.577 439.288 180.918V180.918Z" fill="#030F1C"/>
</g>
<g style="mix-blend-mode:overlay" opacity="0.6">
<path d="M440.961 190.999C440.961 190.999 445.716 195.1 450.611 195.185C453.954 195.244 454.665 196.938 451.218 197.631C449.618 197.953 446.646 197.694 443.483 197.614C442.846 195.346 442.002 193.133 440.961 190.999V190.999Z" fill="#030F1C"/>
</g>
<g style="mix-blend-mode:overlay" opacity="0.6">
<path d="M500.375 209.283C498.631 209.564 496.861 209.844 495.098 210.12C495.479 212.412 495.527 214.485 495.21 215.708C493.16 223.626 484.212 229.05 479.179 230.173C476.056 230.897 473.102 232.151 470.464 233.872C470.464 233.872 492.355 233.766 502.264 228.173C502.264 228.173 503.959 227.51 503.441 225.301C501.939 220.052 500.914 214.693 500.375 209.283V209.283Z" fill="#030F1C"/>
</g>
<g style="mix-blend-mode:overlay" opacity="0.6">
<path d="M487.425 198.408C488.07 198.4 488.707 198.548 489.273 198.839C492.342 198.068 495.192 197.316 496.919 196.778C497.678 196.541 498.742 196.192 499.95 195.787C499.977 194.997 500.01 194.198 500.057 193.382C500.365 187.959 502.11 184.213 502.957 173.539C500.905 169.355 499.016 165.564 497.96 163.593C498.232 168.889 498.561 180.412 496.701 186.223C495.024 191.465 488.353 194.139 483.839 194.864C476.942 195.971 477.85 198.621 487.425 198.408Z" fill="#030F1C"/>
</g>
<path d="M464.693 175.935H464.684C464.53 175.931 464.408 175.81 464.412 175.666L465.058 155.065C465.072 154.924 465.196 154.815 465.347 154.811C465.502 154.815 465.623 154.936 465.619 155.08L464.973 175.681C464.968 175.823 464.844 175.935 464.693 175.935Z" fill="#0B122D"/>
<path d="M480.255 212.511C480.135 212.515 480.032 212.43 480.021 212.318C480.01 212.206 480.094 212.105 480.213 212.088L495.081 209.924C495.162 209.912 495.243 209.941 495.295 210.001C495.346 210.06 495.359 210.14 495.33 210.212C495.3 210.283 495.232 210.334 495.151 210.345L480.283 212.509C480.274 212.51 480.264 212.511 480.255 212.511Z" fill="#0B122D"/>
<g style="mix-blend-mode:overlay" opacity="0.6">
<path d="M515.249 194.294C509.964 196.271 494.651 202.574 492.135 198.129C500.104 196.037 510.242 192.249 510.242 192.249C510.627 192.133 510.94 191.868 511.102 191.521C511.264 191.175 511.26 190.78 511.09 190.436C509.912 188.179 507.933 183.53 504.391 176.557C505.589 176.11 508.081 176.553 508.865 177.908C509.773 179.484 514.339 187.895 516.274 191.287C516.709 192.048 516.647 193.771 515.249 194.294Z" fill="white"/>
</g>
<path d="M516.129 195.428C516.017 195.428 515.922 195.352 515.904 195.25C515.879 195.11 515.246 191.824 511.083 191.713C510.957 191.709 510.858 191.611 510.862 191.494C510.865 191.376 510.97 191.283 511.096 191.287C513.621 191.236 515.829 192.87 516.354 195.181C516.374 195.297 516.29 195.406 516.166 195.425C516.154 195.427 516.141 195.428 516.129 195.428Z" fill="#0B122D"/>
<path d="M503.845 173.194C503.799 173.194 503.754 173.18 503.716 173.156C497.202 168.926 497.182 159.721 497.182 159.628C497.183 159.511 497.285 159.417 497.41 159.417H497.411C497.537 159.417 497.638 159.513 497.638 159.631C497.637 159.721 497.661 168.706 503.976 172.806C504.057 172.859 504.093 172.955 504.063 173.044C504.033 173.133 503.945 173.194 503.845 173.194V173.194Z" fill="#0B122D"/>
<g style="mix-blend-mode:overlay" opacity="0.6">
<path d="M436.726 152.969C436.726 152.969 446.773 147.169 458.291 145.026L458.02 141.741C453.259 143.516 444.197 144.744 436.726 152.969Z" fill="white"/>
</g>
<path d="M477.267 218.135L459.769 190.367L454.983 182.771C454.603 182.167 453.909 181.796 453.159 181.797H424.803C423.964 181.887 423.218 182.34 422.789 183.02C422.695 183.143 422.61 183.271 422.533 183.404C422.413 183.603 422.316 183.814 422.242 184.032C422.242 184.037 422.237 184.037 422.237 184.041C422.008 184.556 422.027 185.138 422.287 185.639L422.257 185.583C422.27 185.617 422.285 185.649 422.303 185.681L422.318 185.7C422.323 185.705 422.323 185.709 422.328 185.714C422.341 185.743 422.356 185.771 422.373 185.798L437.961 210.54L440.788 215.019L444.656 221.162C445.036 221.767 445.73 222.138 446.48 222.137H474.836C474.94 222.136 475.044 222.129 475.147 222.114C476.786 222.109 478.098 219.457 477.267 218.135Z" fill="#36C9D8"/>
<g style="mix-blend-mode:overlay" opacity="0.6">
<path d="M422.144 185.289C422.125 185.221 422.111 185.152 422.101 185.083C422.111 185.152 422.125 185.221 422.144 185.289Z" fill="#030F1C"/>
<path d="M422.256 185.582C422.272 185.614 422.284 185.648 422.303 185.679L422.328 185.716C422.302 185.672 422.277 185.627 422.256 185.582Z" fill="#030F1C"/>
<path d="M422.232 185.533C422.197 185.454 422.168 185.373 422.144 185.291C422.166 185.374 422.195 185.455 422.232 185.533Z" fill="#030F1C"/>
<path d="M475.147 222.114C475.843 222.017 476.443 221.604 476.746 221.01C477.05 220.416 477.018 219.719 476.66 219.152L458.821 190.845L454.377 183.788C453.997 183.184 453.303 182.813 452.553 182.814H424.196C423.34 182.809 422.567 183.291 422.242 184.032C422.316 183.814 422.413 183.603 422.533 183.404C422.608 183.271 422.694 183.142 422.788 183.02C423.218 182.34 423.964 181.887 424.803 181.797H453.159C453.909 181.796 454.603 182.167 454.983 182.771L459.768 190.367L477.266 218.135C478.098 219.457 476.785 222.109 475.147 222.114Z" fill="#030F1C"/>
</g>
<g style="mix-blend-mode:overlay" opacity="0.6">
<path d="M423.938 184.635H425.9C426.028 184.635 426.147 184.698 426.211 184.802L426.691 185.569C426.756 185.673 426.757 185.802 426.692 185.907C426.628 186.011 426.509 186.076 426.38 186.076H424.417C424.289 186.076 424.171 186.012 424.106 185.909L423.627 185.142C423.562 185.038 423.561 184.909 423.625 184.804C423.689 184.699 423.809 184.635 423.938 184.635Z" fill="#030F1C"/>
</g>
<g style="mix-blend-mode:overlay" opacity="0.6">
<path d="M443.282 197.249H445.856C446.614 197.277 447.323 197.608 447.803 198.157V198.157C448.908 199.379 448.396 200.915 446.883 200.915H444.309C443.551 200.886 442.842 200.556 442.362 200.007V200.007C441.256 198.785 441.769 197.249 443.282 197.249Z" fill="#030F1C"/>
</g>
<path fill-rule="evenodd" clip-rule="evenodd" d="M389.822 141.876C389.822 141.876 389.591 137.538 388.175 136.331C387.279 135.618 386.065 135.364 384.93 135.652C384.93 135.652 384.816 135.41 384.649 135.049C384.505 134.736 384.315 134.337 384.12 133.929L384.12 133.929L384.12 133.929C383.772 133.198 383.41 132.439 383.278 132.1C381.415 127.291 378.167 121.108 376.548 121.617C375.274 122.018 376.32 124.757 378.864 131.417C379.194 132.28 379.548 133.208 379.926 134.206C379.713 133.849 378.571 132.53 376.351 133.34C374.788 133.907 375.879 136.401 375.879 136.401C375.879 136.401 373.668 135.495 372.596 136.543C371.427 137.693 372.457 139.642 372.536 139.773C372.413 139.717 370.349 138.803 369.522 140.575C369.195 141.281 370.022 143.337 371.616 145.759C371.814 146.058 372.023 146.363 372.242 146.672C372.292 146.741 372.34 146.808 372.391 146.88L372.395 146.882C372.799 147.441 373.24 148.012 373.711 148.583L373.715 148.582C373.852 148.748 373.985 148.908 374.113 149.065L374.114 149.066C376.483 151.94 377.623 153.323 381.291 154.551C381.291 154.551 382.181 156.085 383.474 158.277C387.414 158.237 390.987 156.103 392.681 152.775C391.975 151.694 391.343 150.571 390.789 149.414C390.789 149.414 390.475 146.718 389.822 141.876ZM475.255 202.907L475.262 202.942C474.602 203.042 473.929 203.052 473.266 202.973C473.013 202.895 472.69 202.824 472.329 202.745C471.41 202.544 470.245 202.288 469.348 201.722C468.667 201.292 467.157 199.508 465.836 197.947L465.836 197.947C464.73 196.641 463.756 195.491 463.511 195.421C462.973 195.266 461.397 197.558 462.55 199.192C462.912 199.706 463.298 200.195 463.648 200.638L463.648 200.638C464.409 201.603 464.996 202.346 464.779 202.642C464.547 202.958 463.385 203.1 462.29 203.234C462.101 203.257 461.914 203.28 461.734 203.303C459.271 203.556 453.602 204.171 453.051 204.515C452.345 204.957 452.008 206.149 453.348 206.427C454.035 206.569 453.076 206.981 452.266 207.328C451.931 207.472 451.621 207.605 451.463 207.704C450.757 208.145 450.421 209.337 451.761 209.614C452.798 209.829 454.45 210.181 453.993 210.467C453.287 210.908 452.951 212.101 454.291 212.378C454.512 212.424 454.817 212.476 455.145 212.533L455.145 212.533C456.145 212.706 457.364 212.916 457.092 213.086C456.46 213.481 456.159 214.547 457.357 214.796C458.108 214.952 462.125 214.496 465.024 214.133C466.781 214.459 471.656 214.018 473.606 212.868C474.791 212.254 476.066 211.805 477.39 211.534C477.886 208.533 477.309 205.462 475.747 202.798C475.455 202.865 475.283 202.904 475.255 202.907ZM467.21 154.942C457.563 154.631 462.276 141.174 462.276 141.174L487.841 138.575C486.156 148.896 477.27 155.265 467.21 154.942Z" fill="#FFB7B6"/>
<path d="M462.165 205.878C462.16 205.827 462.134 205.781 462.092 205.749C462.05 205.717 461.996 205.701 461.943 205.707L453.014 206.513C452.904 206.523 452.823 206.613 452.83 206.716C452.838 206.818 452.931 206.897 453.041 206.893L453.053 206.892L461.982 206.086C462.035 206.081 462.085 206.056 462.119 206.017C462.154 205.978 462.17 205.928 462.165 205.878V205.878Z" fill="#0B122D"/>
<path d="M462.72 209.389C462.706 209.285 462.604 209.211 462.493 209.224L453.423 210.298C453.315 210.31 453.236 210.401 453.245 210.502C453.254 210.604 453.347 210.681 453.456 210.677L453.474 210.676L462.544 209.602C462.598 209.595 462.646 209.569 462.679 209.529C462.712 209.489 462.727 209.439 462.72 209.389V209.389Z" fill="#0B122D"/>
<path d="M464.146 212.177L456.526 212.916C456.417 212.927 456.336 213.016 456.344 213.119C456.351 213.221 456.445 213.3 456.555 213.296L456.568 213.295L464.188 212.556C464.3 212.545 464.382 212.452 464.37 212.347C464.357 212.243 464.258 212.167 464.146 212.177Z" fill="#0B122D"/>
<path d="M382.632 141.068C382.51 141.07 382.412 141.164 382.414 141.279C382.424 141.819 382.351 142.496 381.948 142.655C381.37 142.885 380.175 142.054 379.559 141.477C379.49 141.412 379.384 141.397 379.298 141.44C379.211 141.483 379.165 141.573 379.184 141.663C379.423 142.819 379.285 143.59 378.772 143.954C377.735 144.691 375.456 143.643 375.433 143.632C375.399 143.617 375.362 143.61 375.325 143.612C374.777 142.733 373.833 141.334 373.419 140.491C373.368 140.386 373.236 140.34 373.124 140.388C373.013 140.436 372.964 140.559 373.015 140.664C373.462 141.574 374.517 143.123 375.047 143.992C375.065 144.019 375.09 144.042 375.12 144.059C375.159 144.814 374.996 145.349 374.614 145.627C373.974 146.093 372.916 145.748 372.906 145.744C372.79 145.705 372.663 145.761 372.621 145.869C372.58 145.977 372.64 146.096 372.755 146.135C373.07 146.234 373.4 146.285 373.732 146.287C374.145 146.3 374.55 146.184 374.885 145.957C375.417 145.496 375.675 144.821 375.578 144.149C376.315 144.437 378.048 144.99 379.041 144.286C379.597 143.89 379.823 143.18 379.714 142.17C380.322 142.649 381.376 143.333 382.121 143.038C382.628 142.838 382.876 142.243 382.858 141.272C382.858 141.216 382.834 141.163 382.792 141.125C382.749 141.086 382.691 141.066 382.632 141.068V141.068Z" fill="#030F1C"/>
<path d="M384.894 140.215C383.308 140.453 378.984 140.866 378.042 139.927C377.889 139.779 377.834 139.565 377.897 139.368C378.407 137.255 384.444 135.976 384.504 135.964C384.582 135.948 384.645 135.894 384.669 135.823C384.693 135.752 384.674 135.675 384.62 135.62C384.567 135.565 384.486 135.541 384.408 135.558C384.161 135.609 378.62 136.785 377.589 138.94L376.446 137.086C376.387 136.986 376.252 136.949 376.145 137.004C376.037 137.058 375.997 137.184 376.055 137.285L377.431 139.516L377.434 139.518C377.425 139.775 377.527 140.025 377.718 140.211C378.282 140.773 379.646 140.936 381.045 140.936C382.358 140.92 383.668 140.817 384.965 140.626C385.086 140.607 385.168 140.501 385.148 140.388C385.129 140.275 385.015 140.198 384.894 140.215H384.894Z" fill="#030F1C"/>
</svg>
