<svg width="397" height="815" viewBox="0 0 397 815" fill="none" xmlns="http://www.w3.org/2000/svg">
<g opacity="0.1">
<path d="M-271.672 428.661C-238.238 539.462 -118.8 601.458 -4.86961 567.079C109.06 532.701 174.271 414.986 140.837 304.185C107.402 193.385 -12.0364 131.388 -125.966 165.767C-239.896 200.146 -305.107 317.86 -271.672 428.661Z" stroke="#4E74F9" stroke-width="1.5"/>
<path d="M-368.046 457.339C-319.879 616.965 -145.15 705.488 22.2724 654.968C189.695 604.448 286.294 434.051 238.127 274.425C189.959 114.799 15.2305 26.2764 -152.192 76.7964C-319.614 127.316 -416.214 297.713 -368.046 457.339Z" stroke="#4E74F9" stroke-width="1.5"/>
<path d="M-420.56 473.866C-363.957 661.445 -158.417 765.397 38.5788 705.953C235.575 646.509 349.308 446.216 292.706 258.636C236.103 71.0568 30.5636 -32.8947 -166.432 26.5493C-363.428 85.9932 -477.162 286.286 -420.56 473.866Z" stroke="#4E74F9" stroke-width="1.5"/>
</g>
<ellipse cx="-7" cy="391" rx="98" ry="97" fill="#FFD037"/>
</svg>
