<svg width="65" height="61" viewBox="0 0 65 61" fill="none" xmlns="http://www.w3.org/2000/svg">
<path d="M8.33512 49.5268C15.5921 45.6721 23.789 43.652 32.125 43.6638C40.7708 43.6638 48.8875 45.7926 55.9149 49.5268M42.5 24.1638C42.5 26.7497 41.4069 29.2296 39.4612 31.0581C37.5155 32.8866 34.8766 33.9138 32.125 33.9138C29.3734 33.9138 26.7345 32.8866 24.7888 31.0581C22.8431 29.2296 21.75 26.7497 21.75 24.1638C21.75 21.578 22.8431 19.098 24.7888 17.2695C26.7345 15.441 29.3734 14.4138 32.125 14.4138C34.8766 14.4138 37.5155 15.441 39.4612 17.2695C41.4069 19.098 42.5 21.578 42.5 24.1638ZM63.25 30.6638C63.25 34.505 62.4449 38.3085 60.8808 41.8573C59.3166 45.4061 57.0239 48.6306 54.1337 51.3467C51.2435 54.0628 47.8123 56.2173 44.036 57.6873C40.2598 59.1572 36.2124 59.9138 32.125 59.9138C28.0376 59.9138 23.9902 59.1572 20.214 57.6873C16.4377 56.2173 13.0065 54.0628 10.1163 51.3467C7.22608 48.6306 4.93343 45.4061 3.36925 41.8573C1.80507 38.3085 1 34.505 1 30.6638C1 22.9062 4.27923 15.4664 10.1163 9.98095C15.9534 4.49551 23.8701 1.41382 32.125 1.41382C40.3799 1.41382 48.2966 4.49551 54.1337 9.98095C59.9708 15.4664 63.25 22.9062 63.25 30.6638Z" stroke="black" stroke-width="2" stroke-linecap="round" stroke-linejoin="round"/>
</svg>
