<svg width="48" height="45" viewBox="0 0 48 45" fill="none" xmlns="http://www.w3.org/2000/svg">
<path d="M41.7963 19.8049H6.53704M41.7963 19.8049C43.1322 19.8049 44.4134 20.3002 45.358 21.1819C46.3027 22.0635 46.8333 23.2593 46.8333 24.5062V38.6099C46.8333 39.8567 46.3027 41.0525 45.358 41.9341C44.4134 42.8158 43.1322 43.3111 41.7963 43.3111H6.53704C5.20113 43.3111 3.91994 42.8158 2.97531 41.9341C2.03069 41.0525 1.5 39.8567 1.5 38.6099V24.5062C1.5 23.2593 2.03069 22.0635 2.97531 21.1819C3.91994 20.3002 5.20113 19.8049 6.53704 19.8049M41.7963 19.8049V15.1037C41.7963 13.8569 41.2656 12.6611 40.321 11.7794C39.3764 10.8978 38.0952 10.4025 36.7593 10.4025M6.53704 19.8049V15.1037C6.53704 13.8569 7.06772 12.6611 8.01235 11.7794C8.95698 10.8978 10.2382 10.4025 11.5741 10.4025M36.7593 10.4025V5.70123C36.7593 4.45439 36.2286 3.25861 35.284 2.37696C34.3393 1.49531 33.0581 1 31.7222 1H16.6111C15.2752 1 13.994 1.49531 13.0494 2.37696C12.1048 3.25861 11.5741 4.45439 11.5741 5.70123V10.4025M36.7593 10.4025H11.5741" stroke="black" stroke-width="2" stroke-linecap="round" stroke-linejoin="round"/>
</svg>
