<svg width="33" height="32" viewBox="0 0 33 32" fill="none" xmlns="http://www.w3.org/2000/svg">
<path d="M31.125 19.5394C26.4783 21.4182 21.5122 22.3811 16.5 22.375C11.3276 22.375 6.3925 21.3675 1.875 19.5394M23 7.75V4.5C23 3.63805 22.6576 2.8114 22.0481 2.2019C21.4386 1.59241 20.612 1.25 19.75 1.25H13.25C12.388 1.25 11.5614 1.59241 10.9519 2.2019C10.3424 2.8114 10 3.63805 10 4.5V7.75M16.5 17.5H16.5163M5.125 30.5H27.875C28.737 30.5 29.5636 30.1576 30.1731 29.5481C30.7826 28.9386 31.125 28.112 31.125 27.25V11C31.125 10.138 30.7826 9.3114 30.1731 8.7019C29.5636 8.09241 28.737 7.75 27.875 7.75H5.125C4.26305 7.75 3.4364 8.09241 2.8269 8.7019C2.21741 9.3114 1.875 10.138 1.875 11V27.25C1.875 28.112 2.21741 28.9386 2.8269 29.5481C3.4364 30.1576 4.26305 30.5 5.125 30.5Z" stroke="#6C7072" stroke-width="2" stroke-linecap="round" stroke-linejoin="round"/>
</svg>
