<svg width="39" height="33" viewBox="0 0 39 33" fill="none" xmlns="http://www.w3.org/2000/svg">
<path d="M11.6667 7.95833V1.125M27.3333 7.95833V1.125M9.70833 14.7917H29.2917M5.79167 31.875H33.2083C34.2471 31.875 35.2433 31.515 35.9778 30.8743C36.7124 30.2335 37.125 29.3645 37.125 28.4583V7.95833C37.125 7.05218 36.7124 6.18313 35.9778 5.54239C35.2433 4.90164 34.2471 4.54167 33.2083 4.54167H5.79167C4.7529 4.54167 3.75668 4.90164 3.02216 5.54239C2.28765 6.18313 1.875 7.05218 1.875 7.95833V28.4583C1.875 29.3645 2.28765 30.2335 3.02216 30.8743C3.75668 31.515 4.7529 31.875 5.79167 31.875Z" stroke="#6C7072" stroke-width="2" stroke-linecap="round" stroke-linejoin="round"/>
</svg>
