<svg width="26" height="25" viewBox="0 0 26 25" fill="none" xmlns="http://www.w3.org/2000/svg">
<path d="M10.6666 4.45785H3.99998C3.29274 4.45785 2.61446 4.73002 2.11436 5.21449C1.61426 5.69896 1.33331 6.35604 1.33331 7.04118V21.2495C1.33331 21.9347 1.61426 22.5917 2.11436 23.0762C2.61446 23.5607 3.29274 23.8329 3.99998 23.8329H18.6666C19.3739 23.8329 20.0522 23.5607 20.5523 23.0762C21.0524 22.5917 21.3333 21.9347 21.3333 21.2495V14.7912M19.448 2.63143C19.694 2.3847 19.9882 2.1879 20.3136 2.05251C20.6389 1.91712 20.9888 1.84585 21.3429 1.84287C21.697 1.83989 22.0481 1.90525 22.3759 2.03515C22.7036 2.16504 23.0013 2.35686 23.2517 2.59941C23.5021 2.84197 23.7001 3.1304 23.8342 3.44789C23.9683 3.76537 24.0357 4.10554 24.0326 4.44855C24.0296 4.79157 23.956 5.13055 23.8163 5.44573C23.6765 5.76091 23.4733 6.04596 23.2186 6.28427L11.7706 17.3745H7.99998V13.7217L19.448 2.63143Z" stroke="black" stroke-width="2" stroke-linecap="round" stroke-linejoin="round"/>
</svg>
