<svg width="124" height="113" viewBox="0 0 124 113" fill="none" xmlns="http://www.w3.org/2000/svg">
<path fill-rule="evenodd" clip-rule="evenodd" d="M65.8191 1.88334C64.6559 1.24048 63.3395 0.902344 61.9999 0.902344C60.6603 0.902344 59.3439 1.24048 58.1807 1.88334L4.2807 31.6833C2.80747 32.4988 1.65398 33.7623 0.999581 35.2775C0.345184 36.7927 0.226549 38.4747 0.662124 40.0618C1.0977 41.649 2.06307 43.0525 3.40815 44.054C4.75323 45.0555 6.40263 45.599 8.0999 45.5999V97.7499C6.05773 97.7499 4.09921 98.5349 2.65518 99.932C1.21115 101.329 0.399902 103.224 0.399902 105.2C0.399902 107.176 1.21115 109.071 2.65518 110.468C4.09921 111.865 6.05773 112.65 8.0999 112.65H115.9C117.942 112.65 119.901 111.865 121.345 110.468C122.789 109.071 123.6 107.176 123.6 105.2C123.6 103.224 122.789 101.329 121.345 99.932C119.901 98.5349 117.942 97.7499 115.9 97.7499V45.5999C117.597 45.599 119.247 45.0555 120.592 44.054C121.937 43.0525 122.902 41.649 123.338 40.0618C123.773 38.4747 123.655 36.7927 123 35.2775C122.346 33.7623 121.192 32.4988 119.719 31.6833L65.8191 1.88334ZM31.1999 53.0499C29.1577 53.0499 27.1992 53.8349 25.7552 55.232C24.3111 56.6291 23.4999 58.5241 23.4999 60.4999V82.8499C23.4999 84.8258 24.3111 86.7207 25.7552 88.1179C27.1992 89.515 29.1577 90.2999 31.1999 90.2999C33.2421 90.2999 35.2006 89.515 36.6446 88.1179C38.0886 86.7207 38.8999 84.8258 38.8999 82.8499V60.4999C38.8999 58.5241 38.0886 56.6291 36.6446 55.232C35.2006 53.8349 33.2421 53.0499 31.1999 53.0499ZM54.2999 60.4999C54.2999 58.5241 55.1111 56.6291 56.5552 55.232C57.9992 53.8349 59.9577 53.0499 61.9999 53.0499C64.0421 53.0499 66.0006 53.8349 67.4446 55.232C68.8886 56.6291 69.6999 58.5241 69.6999 60.4999V82.8499C69.6999 84.8258 68.8886 86.7207 67.4446 88.1179C66.0006 89.515 64.0421 90.2999 61.9999 90.2999C59.9577 90.2999 57.9992 89.515 56.5552 88.1179C55.1111 86.7207 54.2999 84.8258 54.2999 82.8499V60.4999ZM92.7999 53.0499C90.7577 53.0499 88.7992 53.8349 87.3552 55.232C85.9111 56.6291 85.0999 58.5241 85.0999 60.4999V82.8499C85.0999 84.8258 85.9111 86.7207 87.3552 88.1179C88.7992 89.515 90.7577 90.2999 92.7999 90.2999C94.8421 90.2999 96.8006 89.515 98.2446 88.1179C99.6886 86.7207 100.5 84.8258 100.5 82.8499V60.4999C100.5 58.5241 99.6886 56.6291 98.2446 55.232C96.8006 53.8349 94.8421 53.0499 92.7999 53.0499Z" fill="#4D8AF0"/>
</svg>
