<svg width="44" height="44" viewBox="0 0 44 44" fill="none" xmlns="http://www.w3.org/2000/svg">
<path fill-rule="evenodd" clip-rule="evenodd" d="M11 19.8V15.4C11 12.4826 12.1589 9.68475 14.2218 7.62185C16.2847 5.55895 19.0826 4.40002 22 4.40002C24.9174 4.40002 27.7153 5.55895 29.7782 7.62185C31.8411 9.68475 33 12.4826 33 15.4V19.8C34.1669 19.8 35.2861 20.2636 36.1112 21.0888C36.9364 21.9139 37.4 23.0331 37.4 24.2V35.2C37.4 36.367 36.9364 37.4861 36.1112 38.3113C35.2861 39.1365 34.1669 39.6 33 39.6H11C9.83302 39.6 8.71387 39.1365 7.88871 38.3113C7.06355 37.4861 6.59998 36.367 6.59998 35.2V24.2C6.59998 23.0331 7.06355 21.9139 7.88871 21.0888C8.71387 20.2636 9.83302 19.8 11 19.8ZM28.6 15.4V19.8H15.4V15.4C15.4 13.6496 16.0953 11.9709 17.3331 10.7331C18.5708 9.49538 20.2495 8.80002 22 8.80002C23.7504 8.80002 25.4291 9.49538 26.6669 10.7331C27.9046 11.9709 28.6 13.6496 28.6 15.4Z" fill="#6C7072"/>
</svg>
