<svg width="44" height="44" viewBox="0 0 44 44" fill="none" xmlns="http://www.w3.org/2000/svg">
<path d="M4.40662 12.9448L22 21.7404L39.5934 12.9448C39.5283 11.8238 39.037 10.7701 38.2202 9.99955C37.4034 9.22897 36.3229 8.79984 35.2 8.80005H8.80002C7.6771 8.79984 6.5966 9.22897 5.77981 9.99955C4.96301 10.7701 4.47175 11.8238 4.40662 12.9448Z" fill="#6C7072"/>
<path d="M39.6 17.8596L22 26.6596L4.40002 17.8596V30.8C4.40002 31.967 4.86359 33.0861 5.68875 33.9113C6.51391 34.7364 7.63307 35.2 8.80002 35.2H35.2C36.367 35.2 37.4861 34.7364 38.3113 33.9113C39.1365 33.0861 39.6 31.967 39.6 30.8V17.8596Z" fill="#6C7072"/>
</svg>
