<svg width="34" height="37" viewBox="0 0 34 37" fill="none" xmlns="http://www.w3.org/2000/svg">
<path d="M1.25 5.375C1.25 4.38044 1.61875 3.42661 2.27513 2.72335C2.9315 2.02009 3.82174 1.625 4.75 1.625H10.49C10.8571 1.6253 11.2149 1.74931 11.5126 1.97947C11.8104 2.20963 12.033 2.53429 12.149 2.9075L14.7705 11.3319C14.9033 11.76 14.8876 12.2251 14.7263 12.6418C14.5649 13.0586 14.2687 13.399 13.892 13.6006L9.94225 15.7194C11.8783 20.3104 15.3103 23.9875 19.5952 26.0619L21.5727 21.83C21.761 21.4264 22.0787 21.109 22.4676 20.9362C22.8566 20.7633 23.2907 20.7464 23.6902 20.8888L31.553 23.6975C31.9016 23.8219 32.2048 24.0607 32.4197 24.3801C32.6345 24.6995 32.7501 25.0832 32.75 25.4769V31.625C32.75 32.6196 32.3813 33.5734 31.7249 34.2766C31.0685 34.9799 30.1783 35.375 29.25 35.375H27.5C13.003 35.375 1.25 22.7825 1.25 7.25V5.375Z" stroke="#6C7072" stroke-width="2" stroke-linecap="round" stroke-linejoin="round"/>
</svg>
