<svg width="113" height="117" viewBox="0 0 113 117" fill="none" xmlns="http://www.w3.org/2000/svg">
<path fill-rule="evenodd" clip-rule="evenodd" d="M56.35 46.8C62.755 46.8 68.8976 44.3347 73.4266 39.9463C77.9556 35.558 80.5 29.6061 80.5 23.4C80.5 17.1939 77.9556 11.2421 73.4266 6.8537C68.8976 2.46535 62.755 0 56.35 0C49.945 0 43.8024 2.46535 39.2734 6.8537C34.7444 11.2421 32.2 17.1939 32.2 23.4C32.2 29.6061 34.7444 35.558 39.2734 39.9463C43.8024 44.3347 49.945 46.8 56.35 46.8ZM0 117C-1.10268e-07 109.83 1.45754 102.73 4.28939 96.1055C7.12124 89.4811 11.272 83.4621 16.5045 78.392C21.7371 73.3219 27.9491 69.3001 34.7858 66.5562C41.6225 63.8123 48.95 62.4 56.35 62.4C63.75 62.4 71.0775 63.8123 77.9142 66.5562C84.7509 69.3001 90.9629 73.3219 96.1955 78.392C101.428 83.4621 105.579 89.4811 108.411 96.1055C111.242 102.73 112.7 109.83 112.7 117H0Z" fill="#4E74F9"/>
</svg>
