<svg width="44" height="41" viewBox="0 0 44 41" fill="none" xmlns="http://www.w3.org/2000/svg">
<path d="M37.7731 18.5009H6.14352M37.7731 18.5009C38.9715 18.5009 40.1208 18.952 40.9682 19.7549C41.8156 20.5579 42.2917 21.6469 42.2917 22.7824V35.6269C42.2917 36.7624 41.8156 37.8514 40.9682 38.6543C40.1208 39.4572 38.9715 39.9083 37.7731 39.9083H6.14352C4.94513 39.9083 3.79583 39.4572 2.94844 38.6543C2.10106 37.8514 1.625 36.7624 1.625 35.6269V22.7824C1.625 21.6469 2.10106 20.5579 2.94844 19.7549C3.79583 18.952 4.94513 18.5009 6.14352 18.5009M37.7731 18.5009V14.2194C37.7731 13.0839 37.2971 11.9949 36.4497 11.192C35.6023 10.389 34.453 9.93796 33.2546 9.93796M6.14352 18.5009V14.2194C6.14352 13.0839 6.61958 11.9949 7.46696 11.192C8.31435 10.389 9.46365 9.93796 10.662 9.93796M33.2546 9.93796V5.65648C33.2546 4.52096 32.7786 3.43195 31.9312 2.62902C31.0838 1.82608 29.9345 1.375 28.7361 1.375H15.1806C13.9822 1.375 12.8329 1.82608 11.9855 2.62902C11.1381 3.43195 10.662 4.52096 10.662 5.65648V9.93796M33.2546 9.93796H10.662" stroke="black" stroke-width="2" stroke-linecap="round" stroke-linejoin="round"/>
</svg>
