<svg width="304" height="296" viewBox="0 0 304 296" fill="none" xmlns="http://www.w3.org/2000/svg">
<path opacity="0.15" d="M-46.8663 18.5529C-21.7318 -42.6608 53.2171 -69.8765 120.537 -42.235C187.856 -14.5934 222.054 57.4381 196.92 118.652C171.785 179.866 96.8364 207.081 29.5167 179.44C-37.8029 151.798 -72.0008 79.7667 -46.8663 18.5529ZM174.974 109.641C195.584 59.4481 167.543 0.385006 112.343 -22.28C57.1436 -44.9451 -4.3116 -22.6292 -24.9209 27.5637C-45.5303 77.7567 -17.4893 136.82 37.7102 159.485C92.9098 182.15 154.365 159.834 174.974 109.641Z" fill="url(#paint0_linear_7_579)" fill-opacity="0.9"/>
<path opacity="0.15" d="M142.223 -62.8945C231.139 -26.3854 276.308 68.7541 243.11 149.606C209.912 230.457 110.919 266.403 22.0032 229.894C-66.9129 193.385 -112.081 98.2458 -78.8838 17.3944C-45.686 -63.457 53.3068 -99.4036 142.223 -62.8945ZM32.8253 203.538C105.733 233.474 186.903 203.999 214.124 137.704C241.345 71.4089 204.309 -6.60187 131.401 -36.538C58.493 -66.474 -22.6774 -36.9992 -49.8982 29.2959C-77.1191 95.591 -40.0826 173.602 32.8253 203.538Z" fill="url(#paint1_linear_7_579)" fill-opacity="0.9"/>
<ellipse opacity="0.15" cx="82.1131" cy="83.5" rx="81.3012" ry="89.4107" transform="rotate(-67.6769 82.1131 83.5)" fill="url(#paint2_linear_7_579)" fill-opacity="0.9"/>
<defs>
<linearGradient id="paint0_linear_7_579" x1="43.8664" y1="209.664" x2="134.886" y2="-12.0106" gradientUnits="userSpaceOnUse">
<stop stop-color="white" stop-opacity="0"/>
<stop offset="0.497674" stop-color="white" stop-opacity="0.8"/>
<stop offset="1" stop-color="white" stop-opacity="0"/>
</linearGradient>
<linearGradient id="paint1_linear_7_579" x1="-85.469" y1="126.833" x2="244.177" y2="-11.4243" gradientUnits="userSpaceOnUse">
<stop stop-color="white" stop-opacity="0"/>
<stop offset="0.497674" stop-color="white" stop-opacity="0.8"/>
<stop offset="1" stop-color="white" stop-opacity="0"/>
</linearGradient>
<linearGradient id="paint2_linear_7_579" x1="82.1131" y1="-5.91072" x2="82.1131" y2="172.911" gradientUnits="userSpaceOnUse">
<stop stop-color="white" stop-opacity="0"/>
<stop offset="0.497674" stop-color="white" stop-opacity="0.8"/>
<stop offset="1" stop-color="white" stop-opacity="0"/>
</linearGradient>
</defs>
</svg>
