<svg width="44" height="43" viewBox="0 0 44 43" fill="none" xmlns="http://www.w3.org/2000/svg">
<path d="M42.7963 35.3247L33.6268 26.4351C31.9192 24.7796 29.2055 24.7791 27.4973 26.434C25.7111 28.1644 25.7111 31.0295 27.4973 32.7599L36.475 41.4573C37.4796 42.4306 39.1333 42.4306 40.138 41.4573L42.7963 38.882C43.8011 37.9001 43.8011 36.2894 42.7963 35.3247Z" fill="black"/>
<path d="M22.903 25.3974C23.7978 26.2643 25.2193 26.2643 26.1141 25.3974C27.05 24.4908 27.05 22.9895 26.1141 22.0828L25.766 21.7456C24.7778 20.7882 24.6732 19.2624 25.2493 18.013C27.4174 13.3106 26.5165 7.59766 22.5348 3.74028C17.387 -1.24676 9.02081 -1.24676 3.86416 3.74028C-1.2925 8.72733 -1.28361 16.8324 3.86416 21.828C7.85542 25.6947 13.7713 26.5624 18.6318 24.4426C19.9121 23.8842 21.4474 23.9873 22.4506 24.9592L22.903 25.3974ZM6.4247 19.313C2.69057 15.6954 2.69057 9.82982 6.4247 6.22089C10.1588 2.60334 16.2134 2.60334 19.9387 6.22089C23.6728 9.83843 23.6728 15.704 19.9387 19.313C16.2134 22.9305 10.1588 22.9305 6.4247 19.313Z" fill="black"/>
</svg>
