<svg width="55" height="42" viewBox="0 0 55 42" fill="none" xmlns="http://www.w3.org/2000/svg">
<path d="M40.625 40.3332H53.75V35.4998C53.7499 33.9931 53.2399 32.5239 52.2909 31.2964C51.3419 30.0688 50.001 29.144 48.4547 28.6504C46.9084 28.1568 45.2335 28.119 43.6628 28.5423C42.0921 28.9656 40.7037 29.8288 39.6905 31.0121M40.625 40.3332H14.375M40.625 40.3332V35.4998C40.625 33.9145 40.2942 32.3993 39.6905 31.0121M39.6905 31.0121C38.7157 28.7693 37.0334 26.8469 34.8605 25.4927C32.6876 24.1386 30.1239 23.4148 27.5 23.4148C24.8761 23.4148 22.3124 24.1386 20.1395 25.4927C17.9666 26.8469 16.2843 28.7693 15.3095 31.0121M14.375 40.3332H1.25V35.4998C1.25012 33.9931 1.76013 32.5239 2.70914 31.2964C3.65814 30.0688 4.99899 29.144 6.54528 28.6504C8.09158 28.1568 9.76649 28.119 11.3372 28.5423C12.9079 28.9656 14.2963 29.8288 15.3095 31.0121M14.375 40.3332V35.4998C14.375 33.9145 14.7057 32.3993 15.3095 31.0121M35.375 8.9165C35.375 10.8393 34.5453 12.6834 33.0685 14.043C31.5916 15.4027 29.5886 16.1665 27.5 16.1665C25.4114 16.1665 23.4084 15.4027 21.9315 14.043C20.4547 12.6834 19.625 10.8393 19.625 8.9165C19.625 6.99368 20.4547 5.14962 21.9315 3.78998C23.4084 2.43034 25.4114 1.6665 27.5 1.6665C29.5886 1.6665 31.5916 2.43034 33.0685 3.78998C34.5453 5.14962 35.375 6.99368 35.375 8.9165ZM51.125 16.1665C51.125 17.4484 50.5719 18.6778 49.5873 19.5842C48.6027 20.4906 47.2674 20.9998 45.875 20.9998C44.4826 20.9998 43.1473 20.4906 42.1627 19.5842C41.1781 18.6778 40.625 17.4484 40.625 16.1665C40.625 14.8846 41.1781 13.6552 42.1627 12.7488C43.1473 11.8424 44.4826 11.3332 45.875 11.3332C47.2674 11.3332 48.6027 11.8424 49.5873 12.7488C50.5719 13.6552 51.125 14.8846 51.125 16.1665ZM14.375 16.1665C14.375 17.4484 13.8219 18.6778 12.8373 19.5842C11.8527 20.4906 10.5174 20.9998 9.125 20.9998C7.73261 20.9998 6.39726 20.4906 5.41269 19.5842C4.42812 18.6778 3.875 17.4484 3.875 16.1665C3.875 14.8846 4.42812 13.6552 5.41269 12.7488C6.39726 11.8424 7.73261 11.3332 9.125 11.3332C10.5174 11.3332 11.8527 11.8424 12.8373 12.7488C13.8219 13.6552 14.375 14.8846 14.375 16.1665Z" stroke="black" stroke-width="2" stroke-linecap="round" stroke-linejoin="round"/>
</svg>
