<svg width="51" height="46" viewBox="0 0 51 46" fill="none" xmlns="http://www.w3.org/2000/svg">
<path d="M7.44262 37.0263C12.951 34.16 19.1726 32.6578 25.5 32.6667C32.0625 32.6667 38.2234 34.2496 43.5574 37.0263M33.375 18.1667C33.375 20.0895 32.5453 21.9336 31.0685 23.2932C29.5916 24.6528 27.5886 25.4167 25.5 25.4167C23.4114 25.4167 21.4084 24.6528 19.9315 23.2932C18.4547 21.9336 17.625 20.0895 17.625 18.1667C17.625 16.2438 18.4547 14.3998 19.9315 13.0401C21.4084 11.6805 23.4114 10.9167 25.5 10.9167C27.5886 10.9167 29.5916 11.6805 31.0685 13.0401C32.5453 14.3998 33.375 16.2438 33.375 18.1667ZM49.125 23C49.125 25.8563 48.5139 28.6845 47.3267 31.3234C46.1394 33.9622 44.3992 36.3599 42.2054 38.3796C40.0116 40.3992 37.4072 42.0013 34.5409 43.0944C31.6746 44.1874 28.6025 44.75 25.5 44.75C22.3975 44.75 19.3254 44.1874 16.4591 43.0944C13.5928 42.0013 10.9884 40.3992 8.7946 38.3796C6.60082 36.3599 4.86061 33.9622 3.67335 31.3234C2.48608 28.6845 1.875 25.8563 1.875 23C1.875 17.2315 4.36406 11.6993 8.7946 7.62043C13.2251 3.54151 19.2343 1.25 25.5 1.25C31.7657 1.25 37.7748 3.54151 42.2054 7.62043C46.6359 11.6993 49.125 17.2315 49.125 23Z" stroke="black" stroke-width="2" stroke-linecap="round" stroke-linejoin="round"/>
</svg>
